<svg width="128" height="35" viewBox="0 0 128 35" fill="none" xmlns="http://www.w3.org/2000/svg">
<path d="M37.248 28.288C36.416 28.288 35.7013 28.0747 35.104 27.648C34.5067 27.2 34.048 26.6453 33.728 25.984C33.408 25.3013 33.248 24.5973 33.248 23.872C33.248 22.72 33.4613 21.7493 33.888 20.96C34.3147 20.1707 34.88 19.5093 35.584 18.976C36.288 18.4427 37.088 17.984 37.984 17.6C38.88 17.1947 39.7867 16.832 40.704 16.512V14.912C40.704 14.3787 40.6613 13.9307 40.576 13.568C40.512 13.2053 40.3733 12.928 40.16 12.736C39.968 12.544 39.6587 12.448 39.232 12.448C38.8693 12.448 38.5707 12.5333 38.336 12.704C38.1227 12.8747 37.9627 13.12 37.856 13.44C37.7707 13.7387 37.7173 14.0907 37.696 14.496L37.632 15.616L33.504 15.456C33.568 13.3227 34.0907 11.7547 35.072 10.752C36.0747 9.728 37.5893 9.216 39.616 9.216C41.472 9.216 42.816 9.728 43.648 10.752C44.5013 11.776 44.928 13.1627 44.928 14.912V23.456C44.928 24.1387 44.9387 24.7573 44.96 25.312C45.0027 25.8667 45.0453 26.368 45.088 26.816C45.152 27.264 45.2053 27.6587 45.248 28H41.344C41.28 27.5733 41.1947 27.0933 41.088 26.56C41.0027 26.0053 40.9387 25.6 40.896 25.344C40.6827 26.0907 40.2773 26.7733 39.68 27.392C39.0827 27.9893 38.272 28.288 37.248 28.288ZM38.848 25.056C39.1253 25.056 39.3813 24.992 39.616 24.864C39.872 24.7147 40.096 24.544 40.288 24.352C40.48 24.16 40.6187 23.9893 40.704 23.84V18.688C40.2347 18.9653 39.7867 19.2427 39.36 19.52C38.9547 19.7973 38.592 20.1067 38.272 20.448C37.9733 20.768 37.7387 21.12 37.568 21.504C37.4187 21.888 37.344 22.336 37.344 22.848C37.344 23.5307 37.472 24.0747 37.728 24.48C38.0053 24.864 38.3787 25.056 38.848 25.056ZM47.1727 34.08V9.504H51.5248V10.912C52.0581 10.4 52.6448 9.99467 53.2848 9.696C53.9248 9.376 54.5968 9.216 55.3008 9.216C56.1328 9.216 56.8154 9.408 57.3488 9.792C57.8821 10.176 58.2981 10.688 58.5968 11.328C58.8954 11.9467 59.0981 12.6187 59.2048 13.344C59.3328 14.048 59.3968 14.7307 59.3968 15.392V21.664C59.3968 22.88 59.2474 23.9893 58.9488 24.992C58.6714 25.9947 58.2128 26.7947 57.5728 27.392C56.9541 27.9893 56.1221 28.288 55.0768 28.288C54.4154 28.288 53.7861 28.128 53.1888 27.808C52.6128 27.488 52.0581 27.0827 51.5248 26.592V34.08H47.1727ZM53.4448 25.248C53.9141 25.248 54.2554 25.0987 54.4688 24.8C54.7034 24.48 54.8528 24.064 54.9167 23.552C55.0021 23.0187 55.0448 22.4427 55.0448 21.824V15.2C55.0448 14.624 55.0021 14.112 54.9167 13.664C54.8314 13.1947 54.6714 12.8213 54.4368 12.544C54.2021 12.2667 53.8608 12.128 53.4128 12.128C53.0714 12.128 52.7301 12.2133 52.3888 12.384C52.0688 12.5333 51.7808 12.7147 51.5248 12.928V24.608C51.8021 24.8 52.1008 24.96 52.4208 25.088C52.7408 25.1947 53.0821 25.248 53.4448 25.248ZM61.4315 34.08V9.504H65.7835V10.912C66.3168 10.4 66.9035 9.99467 67.5435 9.696C68.1835 9.376 68.8555 9.216 69.5595 9.216C70.3915 9.216 71.0742 9.408 71.6075 9.792C72.1408 10.176 72.5568 10.688 72.8555 11.328C73.1542 11.9467 73.3568 12.6187 73.4635 13.344C73.5915 14.048 73.6555 14.7307 73.6555 15.392V21.664C73.6555 22.88 73.5062 23.9893 73.2075 24.992C72.9302 25.9947 72.4715 26.7947 71.8315 27.392C71.2128 27.9893 70.3808 28.288 69.3355 28.288C68.6742 28.288 68.0448 28.128 67.4475 27.808C66.8715 27.488 66.3168 27.0827 65.7835 26.592V34.08H61.4315ZM67.7035 25.248C68.1728 25.248 68.5142 25.0987 68.7275 24.8C68.9622 24.48 69.1115 24.064 69.1755 23.552C69.2608 23.0187 69.3035 22.4427 69.3035 21.824V15.2C69.3035 14.624 69.2608 14.112 69.1755 13.664C69.0902 13.1947 68.9302 12.8213 68.6955 12.544C68.4608 12.2667 68.1195 12.128 67.6715 12.128C67.3302 12.128 66.9888 12.2133 66.6475 12.384C66.3275 12.5333 66.0395 12.7147 65.7835 12.928V24.608C66.0608 24.8 66.3595 24.96 66.6795 25.088C66.9995 25.1947 67.3408 25.248 67.7035 25.248ZM75.8182 28V9.504H80.1702V28H75.8182ZM75.8182 6.56V2.944H80.1702V6.56H75.8182ZM82.0917 28V25.152L87.4358 12.704H82.5397V9.504H92.0438V12.032L86.6038 24.768H92.0118V28H82.0917Z" fill="white"/>
<g clip-path="url(#clip0_17_72)">
<path d="M22.3525 13.5586C21.4184 13.5586 20.5287 13.2275 19.8837 12.6068C18.527 11.3448 18.527 9.2758 19.8837 8.01374C20.551 7.39305 21.4184 7.06201 22.3525 7.06201C23.2867 7.06201 24.1541 7.39305 24.8213 8.01374C26.178 9.2758 26.178 11.3448 24.8213 12.6068C24.1541 13.2275 23.2867 13.5586 22.3525 13.5586Z" fill="url(#paint0_linear_17_72)"/>
<path d="M3.58074 31C2.64661 31 1.75696 30.669 1.11196 30.0483C0.444727 29.4276 0.0888672 28.6207 0.0888672 27.7517C0.0888672 26.8827 0.444727 26.0758 1.11196 25.4552C1.24541 25.331 1.4011 25.2069 1.60127 25.0827C1.66799 25.0414 1.73472 25 1.7792 24.9793C1.91265 24.9172 2.0461 24.8552 2.1573 24.7931C2.22403 24.7724 2.29075 24.731 2.35747 24.7103C2.49092 24.669 2.62437 24.6276 2.78006 24.5862C2.8023 24.5862 2.84678 24.5655 2.86902 24.5655C2.89126 24.5655 2.9135 24.5655 2.9135 24.5448L3.69195 24.5034C3.78091 24.5034 3.89212 24.5241 4.00332 24.5241H4.04781C4.07005 24.5241 4.11453 24.5241 4.13677 24.5241H4.15901H4.2035H4.22574C4.29246 24.5241 4.33694 24.5241 4.40367 24.5241C5.73814 24.5241 7.07261 23.9862 8.02899 23.0758C8.98536 22.1448 9.51915 20.9034 9.49691 19.6621V19.6207V19.5793C9.49691 19.5379 9.49691 19.5172 9.47467 19.4758C9.47467 19.4345 9.47467 19.3931 9.45243 19.3517V19.269C9.45243 19.2069 9.43019 19.1448 9.43019 19.0827L9.49691 18.3586C9.49691 18.3379 9.49691 18.3172 9.51915 18.2965L9.54139 18.2552C9.58588 18.1103 9.60812 17.9862 9.67484 17.8414C9.69708 17.7586 9.74156 17.7172 9.76381 17.6552C9.83053 17.531 9.89725 17.4069 9.96398 17.3034C9.98622 17.2621 10.0307 17.2 10.0752 17.1586C10.2086 16.9724 10.3421 16.8276 10.4755 16.7034C11.1428 16.0827 12.0102 15.7517 12.9443 15.7517C13.8784 15.7517 14.7681 16.0827 15.4131 16.7034C16.7698 17.9655 16.7698 20.0345 15.4131 21.2965C15.2796 21.4207 15.1239 21.5448 14.9238 21.669C14.857 21.7103 14.8126 21.731 14.7458 21.7724C14.6124 21.8345 14.5012 21.8965 14.3677 21.9586C14.301 21.9793 14.2343 22.0207 14.1676 22.0414C14.0341 22.0827 13.9007 22.1241 13.745 22.1655L13.656 22.1862C13.6338 22.1862 13.6115 22.2069 13.5893 22.2069L12.8109 22.269C12.7219 22.269 12.6329 22.2483 12.5217 22.2483H12.455C12.4328 22.2483 12.3883 22.2483 12.366 22.2483H12.3438H12.2993H12.2771C12.2103 22.2483 12.1659 22.2483 12.0991 22.2483C10.7647 22.2483 9.43019 22.7862 8.47381 23.6965C7.51744 24.6276 6.98365 25.869 7.00589 27.1103V27.1517V27.1931C7.00589 27.2345 7.00589 27.2552 7.02813 27.2965C7.02813 27.3379 7.02813 27.3793 7.05037 27.4207C7.05037 27.4414 7.05037 27.4827 7.07262 27.5241C7.07262 27.5655 7.09486 27.6276 7.09486 27.669V27.6896L7.02813 28.3931C7.02813 28.4138 7.00589 28.4965 6.98365 28.5172C6.93917 28.6621 6.89469 28.8069 6.8502 28.9103C6.82796 28.9724 6.80572 29.0345 6.76124 29.0965C6.69451 29.2207 6.62779 29.3448 6.56107 29.469C6.53883 29.5103 6.49434 29.5724 6.44986 29.6345C6.31641 29.8 6.18297 29.9655 6.04952 30.0896C5.40452 30.669 4.51487 31 3.58074 31Z" fill="url(#paint1_linear_17_72)"/>
<path d="M13.0329 31.0001C12.0988 31.0001 11.2091 30.669 10.5641 30.0483C9.89688 29.4276 9.54102 28.6207 9.54102 27.7518C9.54102 26.8828 9.89688 26.0759 10.5641 25.4552C10.6976 25.3311 10.8532 25.2069 11.0534 25.0828C11.0979 25.0414 11.1646 25.0207 11.2091 24.9794C11.3426 24.9173 11.4538 24.8552 11.5872 24.7932C11.6539 24.7725 11.7207 24.7311 11.7874 24.7104C11.9208 24.669 12.0543 24.6276 12.21 24.5863L12.3434 24.5449L13.1441 24.4828C13.2331 24.4828 13.3443 24.5035 13.4332 24.5035H13.5C13.5444 24.5035 13.5667 24.5035 13.6112 24.5035C13.6334 24.5035 13.6334 24.5035 13.6556 24.5035H13.6779H13.7001C13.7668 24.5035 13.8113 24.5035 13.8781 24.5035C15.2125 24.5035 16.547 23.9656 17.5034 23.0552C18.4597 22.1242 18.9935 20.8828 18.9713 19.6414V19.4966L18.9491 19.4759V19.4552C18.9491 19.4138 18.9491 19.3932 18.9491 19.3518L18.9268 19.2483C18.9268 19.1863 18.9046 19.1242 18.9046 19.0828L18.9491 18.3794C18.9491 18.3587 18.9713 18.2759 18.9935 18.2552C19.038 18.0897 19.0825 17.9656 19.127 17.8621C19.1492 17.8 19.1715 17.738 19.216 17.6759C19.2827 17.5725 19.3272 17.4483 19.4161 17.3242L19.4384 17.3035C19.4606 17.2621 19.4828 17.2207 19.5273 17.1794C19.6608 16.9932 19.7942 16.8483 19.9277 16.7242C20.5949 16.1035 21.4623 15.7725 22.3964 15.7725C23.3306 15.7725 24.198 16.1035 24.8652 16.7242C26.2219 17.9863 26.2219 20.0552 24.8652 21.3173C24.7318 21.4414 24.5761 21.5656 24.3759 21.6897C24.3314 21.7104 24.3092 21.7311 24.2647 21.7518L24.198 21.7932C24.0868 21.8552 23.9533 21.9173 23.8199 21.9794C23.7532 22 23.6864 22.0414 23.6197 22.0621C23.4863 22.1035 23.3528 22.1449 23.1971 22.1863C23.1527 22.1863 23.1304 22.2069 23.1082 22.2069C23.0859 22.2069 23.0637 22.2069 23.0637 22.2276L22.2852 22.269C22.174 22.269 22.0406 22.2483 21.9294 22.2276C21.8849 22.2276 21.8627 22.2276 21.8182 22.2276C21.7959 22.2276 21.7959 22.2276 21.7737 22.2276H21.707C21.6402 22.2276 21.5958 22.2276 21.529 22.2276C20.1946 22.2276 18.8601 22.7656 17.9037 23.6759C16.9473 24.6069 16.4136 25.8483 16.458 27.0897V27.1311V27.1725C16.458 27.2138 16.458 27.2552 16.4803 27.2759C16.4803 27.3173 16.4803 27.3587 16.4803 27.3794C16.4803 27.4001 16.4803 27.4414 16.5025 27.4828C16.5025 27.5449 16.5248 27.5863 16.5248 27.6483L16.458 28.3725C16.458 28.3932 16.4136 28.4759 16.4136 28.4759C16.3691 28.6207 16.3246 28.7656 16.2801 28.8897C16.2579 28.9518 16.2356 29.0138 16.1911 29.0552V29.0759C16.1244 29.2 16.0577 29.3035 15.991 29.4276C15.9465 29.4897 15.9242 29.5311 15.8798 29.5932C15.7463 29.7794 15.6129 29.9242 15.4794 30.0483C14.8344 30.669 13.967 31.0001 13.0329 31.0001Z" fill="url(#paint2_linear_17_72)"/>
<path d="M3.58074 22.2276C2.64661 22.2276 1.7792 21.8759 1.11196 21.2759C0.444727 20.6552 0.0888672 19.8483 0.0888672 18.9793C0.0888672 18.1103 0.444727 17.3035 1.11196 16.6828C1.24541 16.5586 1.4011 16.4345 1.60127 16.3103C1.64575 16.269 1.71248 16.2483 1.7792 16.2069C1.89041 16.1448 2.02385 16.0828 2.1573 16.0207C2.22403 16 2.29075 15.9586 2.35747 15.9379C2.49092 15.8966 2.62437 15.8552 2.78006 15.8345L2.86902 15.8138C2.89126 15.8138 2.89126 15.8138 2.9135 15.7931L3.71419 15.731C3.8254 15.731 3.9366 15.7517 4.04781 15.7724H4.07005C4.11453 15.7724 4.13677 15.7724 4.18125 15.7724C4.2035 15.7724 4.2035 15.7724 4.22574 15.7724H4.27022H4.29246C4.35918 15.7724 4.40367 15.7724 4.47039 15.7724C5.80486 15.7724 7.13934 15.2345 8.09571 14.3241C9.05209 13.3931 9.58588 12.1517 9.54139 10.9103V10.869V10.8276C9.54139 10.7862 9.54139 10.7448 9.51915 10.7034C9.51915 10.6621 9.51915 10.6414 9.51915 10.6L9.49691 10.5172C9.49691 10.4552 9.47467 10.3931 9.47467 10.331L9.51915 9.64828V9.62759V9.6069C9.51915 9.58621 9.54139 9.50345 9.54139 9.50345C9.58588 9.33793 9.63036 9.1931 9.67484 9.08966C9.69708 9.02759 9.74156 8.96552 9.76381 8.90345C9.83053 8.77931 9.89725 8.67586 9.96398 8.55172L9.98622 8.53103C10.0085 8.51035 10.0529 8.44828 10.0752 8.4069C10.2086 8.22069 10.3421 8.07586 10.4755 7.95172C11.1428 7.33103 12.0102 7 12.9443 7C13.8784 7 14.7681 7.33103 15.4131 7.95172C16.7698 9.21379 16.7698 11.2828 15.4131 12.5448C15.2796 12.669 15.1239 12.7931 14.9238 12.9172C14.8793 12.9586 14.8348 12.9793 14.7681 13L14.7458 13.0207C14.6124 13.0828 14.5012 13.1448 14.3677 13.2069C14.301 13.2276 14.2343 13.269 14.1676 13.2897C14.0341 13.331 13.9007 13.3724 13.745 13.4138C13.7227 13.4138 13.6783 13.4345 13.656 13.4345C13.6338 13.4345 13.6115 13.4345 13.6115 13.4552L12.8331 13.4966C12.7441 13.4966 12.6329 13.4759 12.5217 13.4759H12.4772C12.4328 13.4759 12.4105 13.4759 12.366 13.4759C12.3438 13.4759 12.3438 13.4759 12.3215 13.4759H12.2993H12.2548C12.1881 13.4759 12.1436 13.4759 12.0769 13.4759C10.7424 13.4759 9.40794 14.0138 8.45157 14.9241C7.4952 15.8552 6.96141 17.0966 6.98365 18.3379V18.3793V18.4207C6.98365 18.4621 6.98365 18.5035 7.00589 18.5241C7.00589 18.5655 7.00589 18.6069 7.00589 18.6483C7.00589 18.669 7.00589 18.7103 7.02813 18.7517C7.02813 18.8138 7.05037 18.8552 7.05037 18.9172L6.98365 19.6207C6.98365 19.6414 6.98365 19.6621 6.96141 19.6828L6.93917 19.7448C6.89469 19.9103 6.8502 20.0345 6.80572 20.1586C6.78348 20.2207 6.739 20.2828 6.71676 20.3448C6.65003 20.469 6.58331 20.5724 6.51658 20.6966C6.4721 20.7586 6.44986 20.8 6.40538 20.8621C6.27193 21.0483 6.13848 21.1931 6.00504 21.3172C5.40452 21.8759 4.51487 22.2276 3.58074 22.2276Z" fill="url(#paint3_linear_17_72)"/>
</g>
<defs>
<linearGradient id="paint0_linear_17_72" x1="25.6002" y1="7.06201" x2="19.7304" y2="10.894" gradientUnits="userSpaceOnUse">
<stop stop-color="#BE83EF"/>
<stop offset="1" stop-color="#3392F3"/>
</linearGradient>
<linearGradient id="paint1_linear_17_72" x1="15.8713" y1="15.7517" x2="2.10217" y2="24.7273" gradientUnits="userSpaceOnUse">
<stop stop-color="#BE83EF"/>
<stop offset="1" stop-color="#3392F3"/>
</linearGradient>
<linearGradient id="paint2_linear_17_72" x1="25.3235" y1="15.7725" x2="11.5655" y2="24.753" gradientUnits="userSpaceOnUse">
<stop stop-color="#BE83EF"/>
<stop offset="1" stop-color="#3392F3"/>
</linearGradient>
<linearGradient id="paint3_linear_17_72" x1="15.8713" y1="7" x2="2.11333" y2="15.9806" gradientUnits="userSpaceOnUse">
<stop stop-color="#BE83EF"/>
<stop offset="1" stop-color="#3392F3"/>
</linearGradient>
<clipPath id="clip0_17_72">
<rect width="26" height="24" fill="white" transform="translate(0 7)"/>
</clipPath>
</defs>
</svg>
