<svg width="128" height="34" viewBox="0 0 128 34" fill="none" xmlns="http://www.w3.org/2000/svg">
<path d="M39.296 27.384C38.1227 27.384 37.088 27.1813 36.192 26.776C35.3173 26.3493 34.6347 25.7733 34.144 25.048C33.6533 24.3013 33.408 23.4267 33.408 22.424C33.408 21.4853 33.6107 20.6427 34.016 19.896C34.4427 19.1493 35.0933 18.52 35.968 18.008C36.8427 17.496 37.9413 17.1333 39.264 16.92L45.28 15.928V18.776L39.968 19.704C39.008 19.8747 38.304 20.184 37.856 20.632C37.408 21.0587 37.184 21.6133 37.184 22.296C37.184 22.9573 37.4293 23.5013 37.92 23.928C38.432 24.3333 39.0827 24.536 39.872 24.536C40.8533 24.536 41.7067 24.3227 42.432 23.896C43.1787 23.4693 43.7547 22.904 44.16 22.2C44.5653 21.4747 44.768 20.6747 44.768 19.8V15.352C44.768 14.4987 44.448 13.8053 43.808 13.272C43.1893 12.7173 42.3573 12.44 41.312 12.44C40.352 12.44 39.5093 12.696 38.784 13.208C38.08 13.6987 37.5573 14.3387 37.216 15.128L34.208 13.624C34.528 12.7707 35.0507 12.024 35.776 11.384C36.5013 10.7227 37.344 10.2107 38.304 9.848C39.2853 9.48533 40.32 9.304 41.408 9.304C42.7733 9.304 43.9787 9.56 45.024 10.072C46.0907 10.584 46.912 11.2987 47.488 12.216C48.0853 13.112 48.384 14.1573 48.384 15.352V27H44.928V23.864L45.664 23.96C45.2587 24.664 44.736 25.272 44.096 25.784C43.4773 26.296 42.7627 26.6907 41.952 26.968C41.1627 27.2453 40.2773 27.384 39.296 27.384ZM51.652 33.4V9.688H55.108V13.272L54.692 12.44C55.332 11.4587 56.1853 10.6907 57.252 10.136C58.3187 9.58133 59.5347 9.304 60.9 9.304C62.5427 9.304 64.0147 9.69867 65.316 10.488C66.6387 11.2773 67.6733 12.3547 68.42 13.72C69.188 15.0853 69.572 16.6213 69.572 18.328C69.572 20.0347 69.188 21.5707 68.42 22.936C67.6733 24.3013 66.6493 25.3893 65.348 26.2C64.0467 26.9893 62.564 27.384 60.9 27.384C59.556 27.384 58.3293 27.1067 57.22 26.552C56.132 25.9973 55.2893 25.1973 54.692 24.152L55.268 23.48V33.4H51.652ZM60.548 24.024C61.572 24.024 62.4787 23.7787 63.268 23.288C64.0573 22.7973 64.676 22.1253 65.124 21.272C65.5933 20.3973 65.828 19.416 65.828 18.328C65.828 17.24 65.5933 16.2693 65.124 15.416C64.676 14.5627 64.0573 13.8907 63.268 13.4C62.4787 12.9093 61.572 12.664 60.548 12.664C59.5453 12.664 58.6387 12.9093 57.828 13.4C57.0387 13.8907 56.4093 14.5627 55.94 15.416C55.492 16.2693 55.268 17.24 55.268 18.328C55.268 19.416 55.492 20.3973 55.94 21.272C56.4093 22.1253 57.0387 22.7973 57.828 23.288C58.6387 23.7787 59.5453 24.024 60.548 24.024ZM72.1295 33.4V9.688H75.5855V13.272L75.1695 12.44C75.8095 11.4587 76.6628 10.6907 77.7295 10.136C78.7962 9.58133 80.0122 9.304 81.3775 9.304C83.0202 9.304 84.4922 9.69867 85.7935 10.488C87.1162 11.2773 88.1508 12.3547 88.8975 13.72C89.6655 15.0853 90.0495 16.6213 90.0495 18.328C90.0495 20.0347 89.6655 21.5707 88.8975 22.936C88.1508 24.3013 87.1268 25.3893 85.8255 26.2C84.5242 26.9893 83.0415 27.384 81.3775 27.384C80.0335 27.384 78.8068 27.1067 77.6975 26.552C76.6095 25.9973 75.7668 25.1973 75.1695 24.152L75.7455 23.48V33.4H72.1295ZM81.0255 24.024C82.0495 24.024 82.9562 23.7787 83.7455 23.288C84.5348 22.7973 85.1535 22.1253 85.6015 21.272C86.0708 20.3973 86.3055 19.416 86.3055 18.328C86.3055 17.24 86.0708 16.2693 85.6015 15.416C85.1535 14.5627 84.5348 13.8907 83.7455 13.4C82.9562 12.9093 82.0495 12.664 81.0255 12.664C80.0228 12.664 79.1162 12.9093 78.3055 13.4C77.5162 13.8907 76.8868 14.5627 76.4175 15.416C75.9695 16.2693 75.7455 17.24 75.7455 18.328C75.7455 19.416 75.9695 20.3973 76.4175 21.272C76.8868 22.1253 77.5162 22.7973 78.3055 23.288C79.1162 23.7787 80.0228 24.024 81.0255 24.024ZM92.607 27V9.688H96.223V27H92.607ZM92.607 7.32V3.16H96.223V7.32H92.607ZM97.9228 27V24.024L108.099 11.704L108.675 12.952H98.4028V9.688H111.875V12.632L101.827 24.984L101.251 23.704H111.907V27H97.9228Z" fill="white"/>
<g clip-path="url(#clip0_9_615)">
<path d="M22.3525 13.5586C21.4184 13.5586 20.5287 13.2275 19.8837 12.6068C18.527 11.3448 18.527 9.2758 19.8837 8.01374C20.551 7.39305 21.4184 7.06201 22.3525 7.06201C23.2867 7.06201 24.1541 7.39305 24.8213 8.01374C26.178 9.2758 26.178 11.3448 24.8213 12.6068C24.1541 13.2275 23.2867 13.5586 22.3525 13.5586Z" fill="url(#paint0_linear_9_615)"/>
<path d="M3.58074 31C2.64661 31 1.75696 30.669 1.11196 30.0483C0.444727 29.4276 0.0888672 28.6207 0.0888672 27.7517C0.0888672 26.8827 0.444727 26.0758 1.11196 25.4552C1.24541 25.331 1.4011 25.2069 1.60127 25.0827C1.66799 25.0414 1.73472 25 1.7792 24.9793C1.91265 24.9172 2.0461 24.8552 2.1573 24.7931C2.22403 24.7724 2.29075 24.731 2.35747 24.7103C2.49092 24.669 2.62437 24.6276 2.78006 24.5862C2.8023 24.5862 2.84678 24.5655 2.86902 24.5655C2.89126 24.5655 2.9135 24.5655 2.9135 24.5448L3.69195 24.5034C3.78091 24.5034 3.89212 24.5241 4.00332 24.5241H4.04781C4.07005 24.5241 4.11453 24.5241 4.13677 24.5241H4.15901H4.2035H4.22574C4.29246 24.5241 4.33694 24.5241 4.40367 24.5241C5.73814 24.5241 7.07261 23.9862 8.02899 23.0758C8.98536 22.1448 9.51915 20.9034 9.49691 19.6621V19.6207V19.5793C9.49691 19.5379 9.49691 19.5172 9.47467 19.4758C9.47467 19.4345 9.47467 19.3931 9.45243 19.3517V19.269C9.45243 19.2069 9.43019 19.1448 9.43019 19.0827L9.49691 18.3586C9.49691 18.3379 9.49691 18.3172 9.51915 18.2965L9.54139 18.2552C9.58588 18.1103 9.60812 17.9862 9.67484 17.8414C9.69708 17.7586 9.74156 17.7172 9.76381 17.6552C9.83053 17.531 9.89725 17.4069 9.96398 17.3034C9.98622 17.2621 10.0307 17.2 10.0752 17.1586C10.2086 16.9724 10.3421 16.8276 10.4755 16.7034C11.1428 16.0827 12.0102 15.7517 12.9443 15.7517C13.8784 15.7517 14.7681 16.0827 15.4131 16.7034C16.7698 17.9655 16.7698 20.0345 15.4131 21.2965C15.2796 21.4207 15.1239 21.5448 14.9238 21.669C14.857 21.7103 14.8126 21.731 14.7458 21.7724C14.6124 21.8345 14.5012 21.8965 14.3677 21.9586C14.301 21.9793 14.2343 22.0207 14.1676 22.0414C14.0341 22.0827 13.9007 22.1241 13.745 22.1655L13.656 22.1862C13.6338 22.1862 13.6115 22.2069 13.5893 22.2069L12.8109 22.269C12.7219 22.269 12.6329 22.2483 12.5217 22.2483H12.455C12.4328 22.2483 12.3883 22.2483 12.366 22.2483H12.3438H12.2993H12.2771C12.2103 22.2483 12.1659 22.2483 12.0991 22.2483C10.7647 22.2483 9.43019 22.7862 8.47381 23.6965C7.51744 24.6276 6.98365 25.869 7.00589 27.1103V27.1517V27.1931C7.00589 27.2345 7.00589 27.2552 7.02813 27.2965C7.02813 27.3379 7.02813 27.3793 7.05037 27.4207C7.05037 27.4414 7.05037 27.4827 7.07262 27.5241C7.07262 27.5655 7.09486 27.6276 7.09486 27.669V27.6896L7.02813 28.3931C7.02813 28.4138 7.00589 28.4965 6.98365 28.5172C6.93917 28.6621 6.89469 28.8069 6.8502 28.9103C6.82796 28.9724 6.80572 29.0345 6.76124 29.0965C6.69451 29.2207 6.62779 29.3448 6.56107 29.469C6.53883 29.5103 6.49434 29.5724 6.44986 29.6345C6.31641 29.8 6.18297 29.9655 6.04952 30.0896C5.40452 30.669 4.51487 31 3.58074 31Z" fill="url(#paint1_linear_9_615)"/>
<path d="M13.0329 31.0001C12.0988 31.0001 11.2091 30.669 10.5641 30.0483C9.89688 29.4276 9.54102 28.6207 9.54102 27.7518C9.54102 26.8828 9.89688 26.0759 10.5641 25.4552C10.6976 25.3311 10.8532 25.2069 11.0534 25.0828C11.0979 25.0414 11.1646 25.0207 11.2091 24.9794C11.3426 24.9173 11.4538 24.8552 11.5872 24.7932C11.6539 24.7725 11.7207 24.7311 11.7874 24.7104C11.9208 24.669 12.0543 24.6276 12.21 24.5863L12.3434 24.5449L13.1441 24.4828C13.2331 24.4828 13.3443 24.5035 13.4332 24.5035H13.5C13.5444 24.5035 13.5667 24.5035 13.6112 24.5035C13.6334 24.5035 13.6334 24.5035 13.6556 24.5035H13.6779H13.7001C13.7668 24.5035 13.8113 24.5035 13.8781 24.5035C15.2125 24.5035 16.547 23.9656 17.5034 23.0552C18.4597 22.1242 18.9935 20.8828 18.9713 19.6414V19.4966L18.9491 19.4759V19.4552C18.9491 19.4138 18.9491 19.3932 18.9491 19.3518L18.9268 19.2483C18.9268 19.1863 18.9046 19.1242 18.9046 19.0828L18.9491 18.3794C18.9491 18.3587 18.9713 18.2759 18.9935 18.2552C19.038 18.0897 19.0825 17.9656 19.127 17.8621C19.1492 17.8 19.1715 17.738 19.216 17.6759C19.2827 17.5725 19.3272 17.4483 19.4161 17.3242L19.4384 17.3035C19.4606 17.2621 19.4828 17.2207 19.5273 17.1794C19.6608 16.9932 19.7942 16.8483 19.9277 16.7242C20.5949 16.1035 21.4623 15.7725 22.3964 15.7725C23.3306 15.7725 24.198 16.1035 24.8652 16.7242C26.2219 17.9863 26.2219 20.0552 24.8652 21.3173C24.7318 21.4414 24.5761 21.5656 24.3759 21.6897C24.3314 21.7104 24.3092 21.7311 24.2647 21.7518L24.198 21.7932C24.0868 21.8552 23.9533 21.9173 23.8199 21.9794C23.7532 22 23.6864 22.0414 23.6197 22.0621C23.4863 22.1035 23.3528 22.1449 23.1971 22.1863C23.1527 22.1863 23.1304 22.2069 23.1082 22.2069C23.0859 22.2069 23.0637 22.2069 23.0637 22.2276L22.2852 22.269C22.174 22.269 22.0406 22.2483 21.9294 22.2276C21.8849 22.2276 21.8627 22.2276 21.8182 22.2276C21.7959 22.2276 21.7959 22.2276 21.7737 22.2276H21.707C21.6402 22.2276 21.5958 22.2276 21.529 22.2276C20.1946 22.2276 18.8601 22.7656 17.9037 23.6759C16.9473 24.6069 16.4136 25.8483 16.458 27.0897V27.1311V27.1725C16.458 27.2138 16.458 27.2552 16.4803 27.2759C16.4803 27.3173 16.4803 27.3587 16.4803 27.3794C16.4803 27.4001 16.4803 27.4414 16.5025 27.4828C16.5025 27.5449 16.5248 27.5863 16.5248 27.6483L16.458 28.3725C16.458 28.3932 16.4136 28.4759 16.4136 28.4759C16.3691 28.6207 16.3246 28.7656 16.2801 28.8897C16.2579 28.9518 16.2356 29.0138 16.1911 29.0552V29.0759C16.1244 29.2 16.0577 29.3035 15.991 29.4276C15.9465 29.4897 15.9242 29.5311 15.8798 29.5932C15.7463 29.7794 15.6129 29.9242 15.4794 30.0483C14.8344 30.669 13.967 31.0001 13.0329 31.0001Z" fill="url(#paint2_linear_9_615)"/>
<path d="M3.58074 22.2276C2.64661 22.2276 1.7792 21.8759 1.11196 21.2759C0.444727 20.6552 0.0888672 19.8483 0.0888672 18.9793C0.0888672 18.1103 0.444727 17.3035 1.11196 16.6828C1.24541 16.5586 1.4011 16.4345 1.60127 16.3103C1.64575 16.269 1.71248 16.2483 1.7792 16.2069C1.89041 16.1448 2.02385 16.0828 2.1573 16.0207C2.22403 16 2.29075 15.9586 2.35747 15.9379C2.49092 15.8966 2.62437 15.8552 2.78006 15.8345L2.86902 15.8138C2.89126 15.8138 2.89126 15.8138 2.9135 15.7931L3.71419 15.731C3.8254 15.731 3.9366 15.7517 4.04781 15.7724H4.07005C4.11453 15.7724 4.13677 15.7724 4.18125 15.7724C4.2035 15.7724 4.2035 15.7724 4.22574 15.7724H4.27022H4.29246C4.35918 15.7724 4.40367 15.7724 4.47039 15.7724C5.80486 15.7724 7.13934 15.2345 8.09571 14.3241C9.05209 13.3931 9.58588 12.1517 9.54139 10.9103V10.869V10.8276C9.54139 10.7862 9.54139 10.7448 9.51915 10.7034C9.51915 10.6621 9.51915 10.6414 9.51915 10.6L9.49691 10.5172C9.49691 10.4552 9.47467 10.3931 9.47467 10.331L9.51915 9.64828V9.62759V9.6069C9.51915 9.58621 9.54139 9.50345 9.54139 9.50345C9.58588 9.33793 9.63036 9.1931 9.67484 9.08966C9.69708 9.02759 9.74156 8.96552 9.76381 8.90345C9.83053 8.77931 9.89725 8.67586 9.96398 8.55172L9.98622 8.53103C10.0085 8.51035 10.0529 8.44828 10.0752 8.4069C10.2086 8.22069 10.3421 8.07586 10.4755 7.95172C11.1428 7.33103 12.0102 7 12.9443 7C13.8784 7 14.7681 7.33103 15.4131 7.95172C16.7698 9.21379 16.7698 11.2828 15.4131 12.5448C15.2796 12.669 15.1239 12.7931 14.9238 12.9172C14.8793 12.9586 14.8348 12.9793 14.7681 13L14.7458 13.0207C14.6124 13.0828 14.5012 13.1448 14.3677 13.2069C14.301 13.2276 14.2343 13.269 14.1676 13.2897C14.0341 13.331 13.9007 13.3724 13.745 13.4138C13.7227 13.4138 13.6783 13.4345 13.656 13.4345C13.6338 13.4345 13.6115 13.4345 13.6115 13.4552L12.8331 13.4966C12.7441 13.4966 12.6329 13.4759 12.5217 13.4759H12.4772C12.4328 13.4759 12.4105 13.4759 12.366 13.4759C12.3438 13.4759 12.3438 13.4759 12.3215 13.4759H12.2993H12.2548C12.1881 13.4759 12.1436 13.4759 12.0769 13.4759C10.7424 13.4759 9.40794 14.0138 8.45157 14.9241C7.4952 15.8552 6.96141 17.0966 6.98365 18.3379V18.3793V18.4207C6.98365 18.4621 6.98365 18.5035 7.00589 18.5241C7.00589 18.5655 7.00589 18.6069 7.00589 18.6483C7.00589 18.669 7.00589 18.7103 7.02813 18.7517C7.02813 18.8138 7.05037 18.8552 7.05037 18.9172L6.98365 19.6207C6.98365 19.6414 6.98365 19.6621 6.96141 19.6828L6.93917 19.7448C6.89469 19.9103 6.8502 20.0345 6.80572 20.1586C6.78348 20.2207 6.739 20.2828 6.71676 20.3448C6.65003 20.469 6.58331 20.5724 6.51658 20.6966C6.4721 20.7586 6.44986 20.8 6.40538 20.8621C6.27193 21.0483 6.13848 21.1931 6.00504 21.3172C5.40452 21.8759 4.51487 22.2276 3.58074 22.2276Z" fill="url(#paint3_linear_9_615)"/>
</g>
<defs>
<linearGradient id="paint0_linear_9_615" x1="23.7321" y1="11.9344" x2="21.1362" y2="12.1784" gradientUnits="userSpaceOnUse">
<stop stop-color="#ADF7DE"/>
<stop offset="1" stop-color="#FFF387"/>
</linearGradient>
<linearGradient id="paint1_linear_9_615" x1="11.4931" y1="27.1879" x2="5.40891" y2="27.7588" gradientUnits="userSpaceOnUse">
<stop stop-color="#ADF7DE"/>
<stop offset="1" stop-color="#FFF387"/>
</linearGradient>
<linearGradient id="paint2_linear_9_615" x1="20.9452" y1="27.1932" x2="14.8612" y2="27.7648" gradientUnits="userSpaceOnUse">
<stop stop-color="#ADF7DE"/>
<stop offset="1" stop-color="#FFF387"/>
</linearGradient>
<linearGradient id="paint3_linear_9_615" x1="11.4931" y1="18.4207" x2="5.40906" y2="18.9924" gradientUnits="userSpaceOnUse">
<stop stop-color="#ADF7DE"/>
<stop offset="1" stop-color="#FFF387"/>
</linearGradient>
<clipPath id="clip0_9_615">
<rect width="26" height="24" fill="white" transform="translate(0 7)"/>
</clipPath>
</defs>
</svg>
