<svg width="128" height="34" viewBox="0 0 128 34" fill="none" xmlns="http://www.w3.org/2000/svg">
<path d="M39.296 27.384C38.1227 27.384 37.088 27.1813 36.192 26.776C35.3173 26.3493 34.6347 25.7733 34.144 25.048C33.6533 24.3013 33.408 23.4267 33.408 22.424C33.408 21.4853 33.6107 20.6427 34.016 19.896C34.4427 19.1493 35.0933 18.52 35.968 18.008C36.8427 17.496 37.9413 17.1333 39.264 16.92L45.28 15.928V18.776L39.968 19.704C39.008 19.8747 38.304 20.184 37.856 20.632C37.408 21.0587 37.184 21.6133 37.184 22.296C37.184 22.9573 37.4293 23.5013 37.92 23.928C38.432 24.3333 39.0827 24.536 39.872 24.536C40.8533 24.536 41.7067 24.3227 42.432 23.896C43.1787 23.4693 43.7547 22.904 44.16 22.2C44.5653 21.4747 44.768 20.6747 44.768 19.8V15.352C44.768 14.4987 44.448 13.8053 43.808 13.272C43.1893 12.7173 42.3573 12.44 41.312 12.44C40.352 12.44 39.5093 12.696 38.784 13.208C38.08 13.6987 37.5573 14.3387 37.216 15.128L34.208 13.624C34.528 12.7707 35.0507 12.024 35.776 11.384C36.5013 10.7227 37.344 10.2107 38.304 9.848C39.2853 9.48533 40.32 9.304 41.408 9.304C42.7733 9.304 43.9787 9.56 45.024 10.072C46.0907 10.584 46.912 11.2987 47.488 12.216C48.0853 13.112 48.384 14.1573 48.384 15.352V27H44.928V23.864L45.664 23.96C45.2587 24.664 44.736 25.272 44.096 25.784C43.4773 26.296 42.7627 26.6907 41.952 26.968C41.1627 27.2453 40.2773 27.384 39.296 27.384ZM51.652 33.4V9.688H55.108V13.272L54.692 12.44C55.332 11.4587 56.1853 10.6907 57.252 10.136C58.3187 9.58133 59.5347 9.304 60.9 9.304C62.5427 9.304 64.0147 9.69867 65.316 10.488C66.6387 11.2773 67.6733 12.3547 68.42 13.72C69.188 15.0853 69.572 16.6213 69.572 18.328C69.572 20.0347 69.188 21.5707 68.42 22.936C67.6733 24.3013 66.6493 25.3893 65.348 26.2C64.0467 26.9893 62.564 27.384 60.9 27.384C59.556 27.384 58.3293 27.1067 57.22 26.552C56.132 25.9973 55.2893 25.1973 54.692 24.152L55.268 23.48V33.4H51.652ZM60.548 24.024C61.572 24.024 62.4787 23.7787 63.268 23.288C64.0573 22.7973 64.676 22.1253 65.124 21.272C65.5933 20.3973 65.828 19.416 65.828 18.328C65.828 17.24 65.5933 16.2693 65.124 15.416C64.676 14.5627 64.0573 13.8907 63.268 13.4C62.4787 12.9093 61.572 12.664 60.548 12.664C59.5453 12.664 58.6387 12.9093 57.828 13.4C57.0387 13.8907 56.4093 14.5627 55.94 15.416C55.492 16.2693 55.268 17.24 55.268 18.328C55.268 19.416 55.492 20.3973 55.94 21.272C56.4093 22.1253 57.0387 22.7973 57.828 23.288C58.6387 23.7787 59.5453 24.024 60.548 24.024ZM72.1295 33.4V9.688H75.5855V13.272L75.1695 12.44C75.8095 11.4587 76.6628 10.6907 77.7295 10.136C78.7962 9.58133 80.0122 9.304 81.3775 9.304C83.0202 9.304 84.4922 9.69867 85.7935 10.488C87.1162 11.2773 88.1508 12.3547 88.8975 13.72C89.6655 15.0853 90.0495 16.6213 90.0495 18.328C90.0495 20.0347 89.6655 21.5707 88.8975 22.936C88.1508 24.3013 87.1268 25.3893 85.8255 26.2C84.5242 26.9893 83.0415 27.384 81.3775 27.384C80.0335 27.384 78.8068 27.1067 77.6975 26.552C76.6095 25.9973 75.7668 25.1973 75.1695 24.152L75.7455 23.48V33.4H72.1295ZM81.0255 24.024C82.0495 24.024 82.9562 23.7787 83.7455 23.288C84.5348 22.7973 85.1535 22.1253 85.6015 21.272C86.0708 20.3973 86.3055 19.416 86.3055 18.328C86.3055 17.24 86.0708 16.2693 85.6015 15.416C85.1535 14.5627 84.5348 13.8907 83.7455 13.4C82.9562 12.9093 82.0495 12.664 81.0255 12.664C80.0228 12.664 79.1162 12.9093 78.3055 13.4C77.5162 13.8907 76.8868 14.5627 76.4175 15.416C75.9695 16.2693 75.7455 17.24 75.7455 18.328C75.7455 19.416 75.9695 20.3973 76.4175 21.272C76.8868 22.1253 77.5162 22.7973 78.3055 23.288C79.1162 23.7787 80.0228 24.024 81.0255 24.024ZM92.607 27V9.688H96.223V27H92.607ZM92.607 7.32V3.16H96.223V7.32H92.607ZM97.9228 27V24.024L108.099 11.704L108.675 12.952H98.4028V9.688H111.875V12.632L101.827 24.984L101.251 23.704H111.907V27H97.9228Z" fill="#010525"/>
<g clip-path="url(#clip0_17_84)">
<path d="M22.3526 13.5586C21.4185 13.5586 20.5289 13.2275 19.8839 12.6068C18.5272 11.3448 18.5272 9.2758 19.8839 8.01374C20.5511 7.39305 21.4185 7.06201 22.3526 7.06201C23.2868 7.06201 24.1542 7.39305 24.8214 8.01374C26.1781 9.2758 26.1781 11.3448 24.8214 12.6068C24.1542 13.2275 23.2868 13.5586 22.3526 13.5586Z" fill="#FD7466"/>
<path d="M3.58086 31C2.64673 31 1.75708 30.669 1.11209 30.0483C0.444849 29.4276 0.0889893 28.6207 0.0889893 27.7517C0.0889893 26.8827 0.444849 26.0758 1.11209 25.4552C1.24553 25.331 1.40122 25.2069 1.60139 25.0827C1.66812 25.0414 1.73484 25 1.77932 24.9793C1.91277 24.9172 2.04622 24.8552 2.15742 24.7931C2.22415 24.7724 2.29087 24.731 2.3576 24.7103C2.49104 24.669 2.62449 24.6276 2.78018 24.5862C2.80242 24.5862 2.8469 24.5655 2.86914 24.5655C2.89139 24.5655 2.91363 24.5655 2.91363 24.5448L3.69207 24.5034C3.78103 24.5034 3.89224 24.5241 4.00345 24.5241H4.04793C4.07017 24.5241 4.11465 24.5241 4.13689 24.5241H4.15914H4.20362H4.22586C4.29258 24.5241 4.33707 24.5241 4.40379 24.5241C5.73826 24.5241 7.07274 23.9862 8.02911 23.0758C8.98548 22.1448 9.51927 20.9034 9.49703 19.6621V19.6207V19.5793C9.49703 19.5379 9.49703 19.5172 9.47479 19.4758C9.47479 19.4345 9.47479 19.3931 9.45255 19.3517V19.269C9.45255 19.2069 9.43031 19.1448 9.43031 19.0827L9.49703 18.3586C9.49703 18.3379 9.49703 18.3172 9.51927 18.2965L9.54151 18.2552C9.586 18.1103 9.60824 17.9862 9.67496 17.8414C9.6972 17.7586 9.74169 17.7172 9.76393 17.6552C9.83065 17.531 9.89737 17.4069 9.9641 17.3034C9.98634 17.2621 10.0308 17.2 10.0753 17.1586C10.2088 16.9724 10.3422 16.8276 10.4756 16.7034C11.1429 16.0827 12.0103 15.7517 12.9444 15.7517C13.8786 15.7517 14.7682 16.0827 15.4132 16.7034C16.7699 17.9655 16.7699 20.0345 15.4132 21.2965C15.2798 21.4207 15.1241 21.5448 14.9239 21.669C14.8572 21.7103 14.8127 21.731 14.746 21.7724C14.6125 21.8345 14.5013 21.8965 14.3679 21.9586C14.3011 21.9793 14.2344 22.0207 14.1677 22.0414C14.0342 22.0827 13.9008 22.1241 13.7451 22.1655L13.6561 22.1862C13.6339 22.1862 13.6117 22.2069 13.5894 22.2069L12.811 22.269C12.722 22.269 12.633 22.2483 12.5218 22.2483H12.4551C12.4329 22.2483 12.3884 22.2483 12.3662 22.2483H12.3439H12.2994H12.2772C12.2105 22.2483 12.166 22.2483 12.0993 22.2483C10.7648 22.2483 9.43031 22.7862 8.47393 23.6965C7.51756 24.6276 6.98377 25.869 7.00601 27.1103V27.1517V27.1931C7.00601 27.2345 7.00601 27.2552 7.02826 27.2965C7.02826 27.3379 7.02826 27.3793 7.0505 27.4207C7.0505 27.4414 7.0505 27.4827 7.07274 27.5241C7.07274 27.5655 7.09498 27.6276 7.09498 27.669V27.6896L7.02826 28.3931C7.02826 28.4138 7.00601 28.4965 6.98377 28.5172C6.93929 28.6621 6.89481 28.8069 6.85032 28.9103C6.82808 28.9724 6.80584 29.0345 6.76136 29.0965C6.69464 29.2207 6.62791 29.3448 6.56119 29.469C6.53895 29.5103 6.49447 29.5724 6.44998 29.6345C6.31654 29.8 6.18309 29.9655 6.04964 30.0896C5.40464 30.669 4.515 31 3.58086 31Z" fill="#FD7466"/>
<path d="M13.033 31.0001C12.0989 31.0001 11.2092 30.669 10.5642 30.0483C9.897 29.4276 9.54114 28.6207 9.54114 27.7518C9.54114 26.8828 9.897 26.0759 10.5642 25.4552C10.6977 25.3311 10.8534 25.2069 11.0535 25.0828C11.098 25.0414 11.1647 25.0207 11.2092 24.9794C11.3427 24.9173 11.4539 24.8552 11.5873 24.7932C11.6541 24.7725 11.7208 24.7311 11.7875 24.7104C11.9209 24.669 12.0544 24.6276 12.2101 24.5863L12.3435 24.5449L13.1442 24.4828C13.2332 24.4828 13.3444 24.5035 13.4334 24.5035H13.5001C13.5446 24.5035 13.5668 24.5035 13.6113 24.5035C13.6335 24.5035 13.6335 24.5035 13.6558 24.5035H13.678H13.7002C13.767 24.5035 13.8115 24.5035 13.8782 24.5035C15.2127 24.5035 16.5471 23.9656 17.5035 23.0552C18.4599 22.1242 18.9937 20.8828 18.9714 19.6414V19.4966L18.9492 19.4759V19.4552C18.9492 19.4138 18.9492 19.3932 18.9492 19.3518L18.9269 19.2483C18.9269 19.1863 18.9047 19.1242 18.9047 19.0828L18.9492 18.3794C18.9492 18.3587 18.9714 18.2759 18.9937 18.2552C19.0381 18.0897 19.0826 17.9656 19.1271 17.8621C19.1494 17.8 19.1716 17.738 19.2161 17.6759C19.2828 17.5725 19.3273 17.4483 19.4162 17.3242L19.4385 17.3035C19.4607 17.2621 19.483 17.2207 19.5275 17.1794C19.6609 16.9932 19.7943 16.8483 19.9278 16.7242C20.595 16.1035 21.4624 15.7725 22.3966 15.7725C23.3307 15.7725 24.1981 16.1035 24.8653 16.7242C26.2221 17.9863 26.2221 20.0552 24.8653 21.3173C24.7319 21.4414 24.5762 21.5656 24.376 21.6897C24.3316 21.7104 24.3093 21.7311 24.2648 21.7518L24.1981 21.7932C24.0869 21.8552 23.9535 21.9173 23.82 21.9794C23.7533 22 23.6866 22.0414 23.6198 22.0621C23.4864 22.1035 23.3529 22.1449 23.1973 22.1863C23.1528 22.1863 23.1305 22.2069 23.1083 22.2069C23.086 22.2069 23.0638 22.2069 23.0638 22.2276L22.2854 22.269C22.1742 22.269 22.0407 22.2483 21.9295 22.2276C21.885 22.2276 21.8628 22.2276 21.8183 22.2276C21.7961 22.2276 21.7961 22.2276 21.7738 22.2276H21.7071C21.6404 22.2276 21.5959 22.2276 21.5292 22.2276C20.1947 22.2276 18.8602 22.7656 17.9038 23.6759C16.9475 24.6069 16.4137 25.8483 16.4582 27.0897V27.1311V27.1725C16.4582 27.2138 16.4582 27.2552 16.4804 27.2759C16.4804 27.3173 16.4804 27.3587 16.4804 27.3794C16.4804 27.4 16.4804 27.4414 16.5026 27.4828C16.5026 27.5449 16.5249 27.5863 16.5249 27.6483L16.4582 28.3725C16.4582 28.3932 16.4137 28.4759 16.4137 28.4759C16.3692 28.6207 16.3247 28.7656 16.2802 28.8897C16.258 28.9518 16.2357 29.0138 16.1913 29.0552V29.0759C16.1245 29.2 16.0578 29.3035 15.9911 29.4276C15.9466 29.4897 15.9244 29.5311 15.8799 29.5932C15.7464 29.7794 15.613 29.9242 15.4795 30.0483C14.8346 30.669 13.9671 31.0001 13.033 31.0001Z" fill="#FD7466"/>
<path d="M3.58086 22.2276C2.64673 22.2276 1.77932 21.8759 1.11209 21.2759C0.444849 20.6552 0.0889893 19.8483 0.0889893 18.9793C0.0889893 18.1103 0.444849 17.3035 1.11209 16.6828C1.24553 16.5586 1.40122 16.4345 1.60139 16.3103C1.64588 16.269 1.7126 16.2483 1.77932 16.2069C1.89053 16.1448 2.02398 16.0828 2.15742 16.0207C2.22415 16 2.29087 15.9586 2.3576 15.9379C2.49104 15.8966 2.62449 15.8552 2.78018 15.8345L2.86914 15.8138C2.89139 15.8138 2.89139 15.8138 2.91363 15.7931L3.71431 15.731C3.82552 15.731 3.93672 15.7517 4.04793 15.7724H4.07017C4.11465 15.7724 4.13689 15.7724 4.18138 15.7724C4.20362 15.7724 4.20362 15.7724 4.22586 15.7724H4.27034H4.29258C4.35931 15.7724 4.40379 15.7724 4.47051 15.7724C5.80499 15.7724 7.13946 15.2345 8.09583 14.3241C9.05221 13.3931 9.586 12.1517 9.54151 10.9103V10.869V10.8276C9.54151 10.7862 9.54151 10.7448 9.51927 10.7034C9.51927 10.6621 9.51927 10.6414 9.51927 10.6L9.49703 10.5172C9.49703 10.4552 9.47479 10.3931 9.47479 10.331L9.51927 9.64828V9.62759V9.6069C9.51927 9.58621 9.54151 9.50345 9.54151 9.50345C9.586 9.33793 9.63048 9.1931 9.67496 9.08966C9.6972 9.02759 9.74169 8.96552 9.76393 8.90345C9.83065 8.77931 9.89737 8.67586 9.9641 8.55172L9.98634 8.53103C10.0086 8.51035 10.0531 8.44828 10.0753 8.4069C10.2088 8.22069 10.3422 8.07586 10.4756 7.95172C11.1429 7.33103 12.0103 7 12.9444 7C13.8786 7 14.7682 7.33103 15.4132 7.95172C16.7699 9.21379 16.7699 11.2828 15.4132 12.5448C15.2798 12.669 15.1241 12.7931 14.9239 12.9172C14.8794 12.9586 14.8349 12.9793 14.7682 13L14.746 13.0207C14.6125 13.0828 14.5013 13.1448 14.3679 13.2069C14.3011 13.2276 14.2344 13.269 14.1677 13.2897C14.0342 13.331 13.9008 13.3724 13.7451 13.4138C13.7229 13.4138 13.6784 13.4345 13.6561 13.4345C13.6339 13.4345 13.6117 13.4345 13.6117 13.4552L12.8332 13.4966C12.7443 13.4966 12.633 13.4759 12.5218 13.4759H12.4774C12.4329 13.4759 12.4106 13.4759 12.3662 13.4759C12.3439 13.4759 12.3439 13.4759 12.3217 13.4759H12.2994H12.2549C12.1882 13.4759 12.1437 13.4759 12.077 13.4759C10.7425 13.4759 9.40807 14.0138 8.45169 14.9241C7.49532 15.8552 6.96153 17.0966 6.98377 18.3379V18.3793V18.4207C6.98377 18.4621 6.98377 18.5035 7.00601 18.5241C7.00601 18.5655 7.00601 18.6069 7.00601 18.6483C7.00601 18.669 7.00601 18.7103 7.02826 18.7517C7.02826 18.8138 7.0505 18.8552 7.0505 18.9172L6.98377 19.6207C6.98377 19.6414 6.98377 19.6621 6.96153 19.6828L6.93929 19.7448C6.89481 19.9103 6.85033 20.0345 6.80584 20.1586C6.7836 20.2207 6.73912 20.2828 6.71688 20.3448C6.65015 20.469 6.58343 20.5724 6.51671 20.6966C6.47222 20.7586 6.44998 20.8 6.4055 20.8621C6.27205 21.0483 6.13861 21.1931 6.00516 21.3172C5.40464 21.8759 4.515 22.2276 3.58086 22.2276Z" fill="#FD7466"/>
</g>
<defs>
<clipPath id="clip0_17_84">
<rect width="26" height="24" fill="white" transform="translate(0 7)"/>
</clipPath>
</defs>
</svg>
