<svg width="150" height="34" viewBox="0 0 150 34" fill="none" xmlns="http://www.w3.org/2000/svg">
<path d="M39.0156 20.1875C39.0156 19.3021 39.2083 18.4948 39.5938 17.7656C39.9792 17.0365 40.5573 16.4115 41.3281 15.8906C42.099 15.3594 43.0573 14.9531 44.2031 14.6719C45.3594 14.3802 46.7031 14.2344 48.2344 14.2344C49.3698 14.2344 50.5625 14.3177 51.8125 14.4844C53.0729 14.651 54.3698 14.9062 55.7031 15.25C55.651 14.6667 55.474 14.1302 55.1719 13.6406C54.8698 13.1406 54.4479 12.7135 53.9062 12.3594C53.375 11.9948 52.7292 11.7135 51.9688 11.5156C51.2188 11.3177 50.3646 11.2188 49.4062 11.2188C48.8854 11.2188 48.3125 11.25 47.6875 11.3125C47.0625 11.375 46.4167 11.4688 45.75 11.5938C45.0833 11.7188 44.4219 11.875 43.7656 12.0625C43.1198 12.25 42.5156 12.474 41.9531 12.7344L40.5469 8.9375C41.2448 8.6875 41.9896 8.45833 42.7812 8.25C43.5833 8.04167 44.401 7.86458 45.2344 7.71875C46.0677 7.5625 46.901 7.44271 47.7344 7.35938C48.5677 7.27604 49.375 7.23438 50.1562 7.23438C53.6042 7.23438 56.1667 8.11458 57.8438 9.875C59.5208 11.6354 60.3594 14.3333 60.3594 17.9688V26H55.7344V24.2656C55.2552 24.5469 54.7292 24.8125 54.1562 25.0625C53.5938 25.3125 52.9792 25.5312 52.3125 25.7188C51.6458 25.9062 50.9271 26.0521 50.1562 26.1562C49.3958 26.2708 48.5885 26.3281 47.7344 26.3281C46.2969 26.3281 45.0312 26.1719 43.9375 25.8594C42.8542 25.5469 41.9479 25.1146 41.2188 24.5625C40.4896 24.0104 39.9375 23.3646 39.5625 22.625C39.1979 21.875 39.0156 21.0625 39.0156 20.1875ZM43.8906 20.0312C43.8906 20.3333 43.9688 20.625 44.125 20.9062C44.2812 21.1771 44.5312 21.4219 44.875 21.6406C45.2188 21.849 45.6562 22.0208 46.1875 22.1562C46.7292 22.2812 47.3802 22.3438 48.1406 22.3438C48.9531 22.3438 49.7396 22.2708 50.5 22.125C51.2604 21.9792 51.9688 21.7865 52.625 21.5469C53.2812 21.3073 53.875 21.0312 54.4062 20.7188C54.9375 20.4062 55.3802 20.0833 55.7344 19.75V18.9375C55.026 18.7396 54.3229 18.5729 53.625 18.4375C52.9375 18.3021 52.276 18.1979 51.6406 18.125C51.0156 18.0417 50.4219 17.9844 49.8594 17.9531C49.3073 17.9219 48.8229 17.9062 48.4062 17.9062C47.5417 17.9062 46.8229 17.9635 46.25 18.0781C45.6771 18.1927 45.2135 18.349 44.8594 18.5469C44.5052 18.7344 44.2552 18.9583 44.1094 19.2188C43.9635 19.4792 43.8906 19.75 43.8906 20.0312ZM70.0244 33.5312H65.3994V7.5625H70.0244V9.29688C70.4306 9.01562 70.9098 8.75 71.4619 8.5C72.014 8.25 72.6077 8.03125 73.2431 7.84375C73.8785 7.65625 74.5348 7.51042 75.2119 7.40625C75.889 7.29167 76.566 7.23438 77.2431 7.23438C78.8056 7.23438 80.2379 7.46354 81.54 7.92188C82.8525 8.38021 83.9775 9.02604 84.915 9.85938C85.8525 10.6927 86.5817 11.6927 87.1025 12.8594C87.6338 14.0156 87.8994 15.2969 87.8994 16.7031C87.8994 18.1719 87.6233 19.5 87.0713 20.6875C86.5192 21.8646 85.7535 22.875 84.7744 23.7188C83.8056 24.5521 82.6494 25.1979 81.3056 25.6562C79.9723 26.1042 78.5244 26.3281 76.9619 26.3281C76.2952 26.3281 75.6338 26.2865 74.9775 26.2031C74.3317 26.1198 73.7067 26.0052 73.1025 25.8594C72.5088 25.7135 71.9463 25.5417 71.415 25.3438C70.8942 25.1354 70.4306 24.9115 70.0244 24.6719V33.5312ZM70.0244 20.2031C70.4931 20.5781 70.9879 20.8958 71.5088 21.1562C72.0296 21.4167 72.5608 21.6302 73.1025 21.7969C73.6442 21.9635 74.191 22.0885 74.7431 22.1719C75.2952 22.2448 75.8317 22.2812 76.3525 22.2812C77.415 22.2812 78.3577 22.1406 79.1806 21.8594C80.014 21.5677 80.7119 21.1719 81.2744 20.6719C81.8473 20.1719 82.2848 19.5833 82.5869 18.9062C82.889 18.2292 83.04 17.4948 83.04 16.7031C83.04 15.9635 82.889 15.2656 82.5869 14.6094C82.2952 13.9531 81.8681 13.3802 81.3056 12.8906C80.7535 12.3906 80.0817 12 79.29 11.7188C78.5088 11.4271 77.6285 11.2812 76.6494 11.2812C76.0244 11.2812 75.3994 11.3438 74.7744 11.4688C74.1494 11.5833 73.5452 11.75 72.9619 11.9688C72.389 12.1875 71.8473 12.4531 71.3369 12.7656C70.8369 13.0781 70.3994 13.4271 70.0244 13.8125V20.2031ZM95.8144 33.5312H91.1894V7.5625H95.8144V9.29688C96.2206 9.01562 96.6998 8.75 97.2519 8.5C97.804 8.25 98.3977 8.03125 99.0331 7.84375C99.6685 7.65625 100.325 7.51042 101.002 7.40625C101.679 7.29167 102.356 7.23438 103.033 7.23438C104.596 7.23438 106.028 7.46354 107.33 7.92188C108.643 8.38021 109.768 9.02604 110.705 9.85938C111.643 10.6927 112.372 11.6927 112.893 12.8594C113.424 14.0156 113.689 15.2969 113.689 16.7031C113.689 18.1719 113.413 19.5 112.861 20.6875C112.309 21.8646 111.544 22.875 110.564 23.7188C109.596 24.5521 108.439 25.1979 107.096 25.6562C105.762 26.1042 104.314 26.3281 102.752 26.3281C102.085 26.3281 101.424 26.2865 100.768 26.2031C100.122 26.1198 99.4967 26.0052 98.8925 25.8594C98.2988 25.7135 97.7363 25.5417 97.205 25.3438C96.6842 25.1354 96.2206 24.9115 95.8144 24.6719V33.5312ZM95.8144 20.2031C96.2831 20.5781 96.7779 20.8958 97.2988 21.1562C97.8196 21.4167 98.3508 21.6302 98.8925 21.7969C99.4342 21.9635 99.981 22.0885 100.533 22.1719C101.085 22.2448 101.622 22.2812 102.143 22.2812C103.205 22.2812 104.148 22.1406 104.971 21.8594C105.804 21.5677 106.502 21.1719 107.064 20.6719C107.637 20.1719 108.075 19.5833 108.377 18.9062C108.679 18.2292 108.83 17.4948 108.83 16.7031C108.83 15.9635 108.679 15.2656 108.377 14.6094C108.085 13.9531 107.658 13.3802 107.096 12.8906C106.544 12.3906 105.872 12 105.08 11.7188C104.299 11.4271 103.419 11.2812 102.439 11.2812C101.814 11.2812 101.189 11.3438 100.564 11.4688C99.9394 11.5833 99.3352 11.75 98.7519 11.9688C98.179 12.1875 97.6373 12.4531 97.1269 12.7656C96.6269 13.0781 96.1894 13.4271 95.8144 13.8125V20.2031ZM119.542 5.04688C119.084 5.04688 118.667 4.98438 118.292 4.85938C117.927 4.72396 117.615 4.54688 117.354 4.32812C117.094 4.09896 116.891 3.83854 116.745 3.54688C116.61 3.24479 116.542 2.92708 116.542 2.59375C116.542 2.25 116.61 1.93229 116.745 1.64062C116.891 1.33854 117.094 1.07812 117.354 0.859375C117.615 0.640625 117.927 0.46875 118.292 0.34375C118.667 0.208333 119.084 0.140625 119.542 0.140625C120.011 0.140625 120.427 0.208333 120.792 0.34375C121.167 0.46875 121.485 0.640625 121.745 0.859375C122.005 1.07812 122.203 1.33854 122.339 1.64062C122.485 1.93229 122.558 2.25 122.558 2.59375C122.558 2.92708 122.485 3.24479 122.339 3.54688C122.203 3.83854 122.005 4.09896 121.745 4.32812C121.485 4.54688 121.167 4.72396 120.792 4.85938C120.427 4.98438 120.011 5.04688 119.542 5.04688ZM117.229 7.5625H121.854V26H117.229V7.5625ZM135.723 11.4062H126.269V7.5625H144.301L132.926 22.1562H143.676V26H124.426L135.723 11.4062Z" fill="white"/>
<g clip-path="url(#clip0_101_87)">
<path d="M22.3525 12.5586C21.4184 12.5586 20.5287 12.2275 19.8837 11.6068C18.527 10.3448 18.527 8.2758 19.8837 7.01374C20.551 6.39305 21.4184 6.06201 22.3525 6.06201C23.2867 6.06201 24.1541 6.39305 24.8213 7.01374C26.178 8.2758 26.178 10.3448 24.8213 11.6068C24.1541 12.2275 23.2867 12.5586 22.3525 12.5586Z" fill="url(#paint0_linear_101_87)"/>
<path d="M3.58074 30C2.64661 30 1.75696 29.669 1.11196 29.0483C0.444727 28.4276 0.0888672 27.6207 0.0888672 26.7517C0.0888672 25.8827 0.444727 25.0758 1.11196 24.4552C1.24541 24.331 1.4011 24.2069 1.60127 24.0827C1.66799 24.0414 1.73472 24 1.7792 23.9793C1.91265 23.9172 2.0461 23.8552 2.1573 23.7931C2.22403 23.7724 2.29075 23.731 2.35747 23.7103C2.49092 23.669 2.62437 23.6276 2.78006 23.5862C2.8023 23.5862 2.84678 23.5655 2.86902 23.5655C2.89126 23.5655 2.9135 23.5655 2.9135 23.5448L3.69195 23.5034C3.78091 23.5034 3.89212 23.5241 4.00332 23.5241H4.04781C4.07005 23.5241 4.11453 23.5241 4.13677 23.5241H4.15901H4.2035H4.22574C4.29246 23.5241 4.33694 23.5241 4.40367 23.5241C5.73814 23.5241 7.07261 22.9862 8.02899 22.0758C8.98536 21.1448 9.51915 19.9034 9.49691 18.6621V18.6207V18.5793C9.49691 18.5379 9.49691 18.5172 9.47467 18.4758C9.47467 18.4345 9.47467 18.3931 9.45243 18.3517V18.269C9.45243 18.2069 9.43019 18.1448 9.43019 18.0827L9.49691 17.3586C9.49691 17.3379 9.49691 17.3172 9.51915 17.2965L9.54139 17.2552C9.58588 17.1103 9.60812 16.9862 9.67484 16.8414C9.69708 16.7586 9.74156 16.7172 9.76381 16.6552C9.83053 16.531 9.89725 16.4069 9.96398 16.3034C9.98622 16.2621 10.0307 16.2 10.0752 16.1586C10.2086 15.9724 10.3421 15.8276 10.4755 15.7034C11.1428 15.0827 12.0102 14.7517 12.9443 14.7517C13.8784 14.7517 14.7681 15.0827 15.4131 15.7034C16.7698 16.9655 16.7698 19.0345 15.4131 20.2965C15.2796 20.4207 15.1239 20.5448 14.9238 20.669C14.857 20.7103 14.8126 20.731 14.7458 20.7724C14.6124 20.8345 14.5012 20.8965 14.3677 20.9586C14.301 20.9793 14.2343 21.0207 14.1676 21.0414C14.0341 21.0827 13.9007 21.1241 13.745 21.1655L13.656 21.1862C13.6338 21.1862 13.6115 21.2069 13.5893 21.2069L12.8109 21.269C12.7219 21.269 12.6329 21.2483 12.5217 21.2483H12.455C12.4328 21.2483 12.3883 21.2483 12.366 21.2483H12.3438H12.2993H12.2771C12.2103 21.2483 12.1659 21.2483 12.0991 21.2483C10.7647 21.2483 9.43019 21.7862 8.47381 22.6965C7.51744 23.6276 6.98365 24.869 7.00589 26.1103V26.1517V26.1931C7.00589 26.2345 7.00589 26.2552 7.02813 26.2965C7.02813 26.3379 7.02813 26.3793 7.05037 26.4207C7.05037 26.4414 7.05037 26.4827 7.07262 26.5241C7.07262 26.5655 7.09486 26.6276 7.09486 26.669V26.6896L7.02813 27.3931C7.02813 27.4138 7.00589 27.4965 6.98365 27.5172C6.93917 27.6621 6.89469 27.8069 6.8502 27.9103C6.82796 27.9724 6.80572 28.0345 6.76124 28.0965C6.69451 28.2207 6.62779 28.3448 6.56107 28.469C6.53883 28.5103 6.49434 28.5724 6.44986 28.6345C6.31641 28.8 6.18297 28.9655 6.04952 29.0896C5.40452 29.669 4.51487 30 3.58074 30Z" fill="url(#paint1_linear_101_87)"/>
<path d="M13.0329 30.0001C12.0988 30.0001 11.2091 29.669 10.5641 29.0483C9.89688 28.4276 9.54102 27.6207 9.54102 26.7518C9.54102 25.8828 9.89688 25.0759 10.5641 24.4552C10.6976 24.3311 10.8532 24.2069 11.0534 24.0828C11.0979 24.0414 11.1646 24.0207 11.2091 23.9794C11.3426 23.9173 11.4538 23.8552 11.5872 23.7932C11.6539 23.7725 11.7207 23.7311 11.7874 23.7104C11.9208 23.669 12.0543 23.6276 12.21 23.5863L12.3434 23.5449L13.1441 23.4828C13.2331 23.4828 13.3443 23.5035 13.4332 23.5035H13.5C13.5444 23.5035 13.5667 23.5035 13.6112 23.5035C13.6334 23.5035 13.6334 23.5035 13.6556 23.5035H13.6779H13.7001C13.7668 23.5035 13.8113 23.5035 13.8781 23.5035C15.2125 23.5035 16.547 22.9656 17.5034 22.0552C18.4597 21.1242 18.9935 19.8828 18.9713 18.6414V18.4966L18.9491 18.4759V18.4552C18.9491 18.4138 18.9491 18.3932 18.9491 18.3518L18.9268 18.2483C18.9268 18.1863 18.9046 18.1242 18.9046 18.0828L18.9491 17.3794C18.9491 17.3587 18.9713 17.2759 18.9935 17.2552C19.038 17.0897 19.0825 16.9656 19.127 16.8621C19.1492 16.8 19.1715 16.738 19.216 16.6759C19.2827 16.5725 19.3272 16.4483 19.4161 16.3242L19.4384 16.3035C19.4606 16.2621 19.4828 16.2207 19.5273 16.1794C19.6608 15.9932 19.7942 15.8483 19.9277 15.7242C20.5949 15.1035 21.4623 14.7725 22.3964 14.7725C23.3306 14.7725 24.198 15.1035 24.8652 15.7242C26.2219 16.9863 26.2219 19.0552 24.8652 20.3173C24.7318 20.4414 24.5761 20.5656 24.3759 20.6897C24.3314 20.7104 24.3092 20.7311 24.2647 20.7518L24.198 20.7932C24.0868 20.8552 23.9533 20.9173 23.8199 20.9794C23.7532 21 23.6864 21.0414 23.6197 21.0621C23.4863 21.1035 23.3528 21.1449 23.1971 21.1863C23.1527 21.1863 23.1304 21.2069 23.1082 21.2069C23.0859 21.2069 23.0637 21.2069 23.0637 21.2276L22.2852 21.269C22.174 21.269 22.0406 21.2483 21.9294 21.2276C21.8849 21.2276 21.8627 21.2276 21.8182 21.2276C21.7959 21.2276 21.7959 21.2276 21.7737 21.2276H21.707C21.6402 21.2276 21.5958 21.2276 21.529 21.2276C20.1946 21.2276 18.8601 21.7656 17.9037 22.6759C16.9473 23.6069 16.4136 24.8483 16.458 26.0897V26.1311V26.1725C16.458 26.2138 16.458 26.2552 16.4803 26.2759C16.4803 26.3173 16.4803 26.3587 16.4803 26.3794C16.4803 26.4001 16.4803 26.4414 16.5025 26.4828C16.5025 26.5449 16.5248 26.5863 16.5248 26.6483L16.458 27.3725C16.458 27.3932 16.4136 27.4759 16.4136 27.4759C16.3691 27.6207 16.3246 27.7656 16.2801 27.8897C16.2579 27.9518 16.2356 28.0138 16.1911 28.0552V28.0759C16.1244 28.2 16.0577 28.3035 15.991 28.4276C15.9465 28.4897 15.9242 28.5311 15.8798 28.5932C15.7463 28.7794 15.6129 28.9242 15.4794 29.0483C14.8344 29.669 13.967 30.0001 13.0329 30.0001Z" fill="url(#paint2_linear_101_87)"/>
<path d="M3.58074 21.2276C2.64661 21.2276 1.7792 20.8759 1.11196 20.2759C0.444727 19.6552 0.0888672 18.8483 0.0888672 17.9793C0.0888672 17.1103 0.444727 16.3035 1.11196 15.6828C1.24541 15.5586 1.4011 15.4345 1.60127 15.3103C1.64575 15.269 1.71248 15.2483 1.7792 15.2069C1.89041 15.1448 2.02385 15.0828 2.1573 15.0207C2.22403 15 2.29075 14.9586 2.35747 14.9379C2.49092 14.8966 2.62437 14.8552 2.78006 14.8345L2.86902 14.8138C2.89126 14.8138 2.89126 14.8138 2.9135 14.7931L3.71419 14.731C3.8254 14.731 3.9366 14.7517 4.04781 14.7724H4.07005C4.11453 14.7724 4.13677 14.7724 4.18125 14.7724C4.2035 14.7724 4.2035 14.7724 4.22574 14.7724H4.27022H4.29246C4.35918 14.7724 4.40367 14.7724 4.47039 14.7724C5.80486 14.7724 7.13934 14.2345 8.09571 13.3241C9.05209 12.3931 9.58588 11.1517 9.54139 9.91035V9.86897V9.82759C9.54139 9.78621 9.54139 9.74483 9.51915 9.70345C9.51915 9.66207 9.51915 9.64138 9.51915 9.6L9.49691 9.51724C9.49691 9.45517 9.47467 9.3931 9.47467 9.33104L9.51915 8.64828V8.62759V8.6069C9.51915 8.58621 9.54139 8.50345 9.54139 8.50345C9.58588 8.33793 9.63036 8.1931 9.67484 8.08966C9.69708 8.02759 9.74156 7.96552 9.76381 7.90345C9.83053 7.77931 9.89725 7.67586 9.96398 7.55172L9.98622 7.53103C10.0085 7.51035 10.0529 7.44828 10.0752 7.4069C10.2086 7.22069 10.3421 7.07586 10.4755 6.95172C11.1428 6.33103 12.0102 6 12.9443 6C13.8784 6 14.7681 6.33103 15.4131 6.95172C16.7698 8.21379 16.7698 10.2828 15.4131 11.5448C15.2796 11.669 15.1239 11.7931 14.9238 11.9172C14.8793 11.9586 14.8348 11.9793 14.7681 12L14.7458 12.0207C14.6124 12.0828 14.5012 12.1448 14.3677 12.2069C14.301 12.2276 14.2343 12.269 14.1676 12.2897C14.0341 12.331 13.9007 12.3724 13.745 12.4138C13.7227 12.4138 13.6783 12.4345 13.656 12.4345C13.6338 12.4345 13.6115 12.4345 13.6115 12.4552L12.8331 12.4966C12.7441 12.4966 12.6329 12.4759 12.5217 12.4759H12.4772C12.4328 12.4759 12.4105 12.4759 12.366 12.4759C12.3438 12.4759 12.3438 12.4759 12.3215 12.4759H12.2993H12.2548C12.1881 12.4759 12.1436 12.4759 12.0769 12.4759C10.7424 12.4759 9.40794 13.0138 8.45157 13.9241C7.4952 14.8552 6.96141 16.0966 6.98365 17.3379V17.3793V17.4207C6.98365 17.4621 6.98365 17.5035 7.00589 17.5241C7.00589 17.5655 7.00589 17.6069 7.00589 17.6483C7.00589 17.669 7.00589 17.7103 7.02813 17.7517C7.02813 17.8138 7.05037 17.8552 7.05037 17.9172L6.98365 18.6207C6.98365 18.6414 6.98365 18.6621 6.96141 18.6828L6.93917 18.7448C6.89469 18.9103 6.8502 19.0345 6.80572 19.1586C6.78348 19.2207 6.739 19.2828 6.71676 19.3448C6.65003 19.469 6.58331 19.5724 6.51658 19.6966C6.4721 19.7586 6.44986 19.8 6.40538 19.8621C6.27193 20.0483 6.13848 20.1931 6.00504 20.3172C5.40452 20.8759 4.51487 21.2276 3.58074 21.2276Z" fill="url(#paint3_linear_101_87)"/>
</g>
<defs>
<linearGradient id="paint0_linear_101_87" x1="24.3161" y1="8.65679" x2="18.8589" y2="8.83087" gradientUnits="userSpaceOnUse">
<stop stop-color="#3722FF"/>
<stop offset="0.526764" stop-color="#FC31F8"/>
<stop offset="1" stop-color="#FFCA3E"/>
</linearGradient>
<linearGradient id="paint1_linear_101_87" x1="12.8617" y1="20.842" x2="0.0716674" y2="21.2494" gradientUnits="userSpaceOnUse">
<stop stop-color="#3722FF"/>
<stop offset="0.526764" stop-color="#FC31F8"/>
<stop offset="1" stop-color="#FFCA3E"/>
</linearGradient>
<linearGradient id="paint2_linear_101_87" x1="22.3139" y1="20.8545" x2="9.52385" y2="21.2624" gradientUnits="userSpaceOnUse">
<stop stop-color="#3722FF"/>
<stop offset="0.526764" stop-color="#FC31F8"/>
<stop offset="1" stop-color="#FFCA3E"/>
</linearGradient>
<linearGradient id="paint3_linear_101_87" x1="12.8617" y1="12.082" x2="0.0717027" y2="12.49" gradientUnits="userSpaceOnUse">
<stop stop-color="#3722FF"/>
<stop offset="0.526764" stop-color="#FC31F8"/>
<stop offset="1" stop-color="#FFCA3E"/>
</linearGradient>
<clipPath id="clip0_101_87">
<rect width="26" height="24" fill="white" transform="translate(0 6)"/>
</clipPath>
</defs>
</svg>
