<svg width="931" height="415" viewBox="0 0 931 415" fill="none" xmlns="http://www.w3.org/2000/svg">
<path d="M716.793 414.127C600.733 414.127 525.561 338.667 452.675 265.5L394.518 207.12C327.981 140.838 280.745 100.813 213.953 100.813C182.208 100.813 153.003 112.03 131.924 132.425C111.608 152.055 100.433 178.568 100.433 207.12C100.433 235.673 111.608 261.931 131.924 281.816C153.003 302.211 181.954 313.428 213.953 313.428C242.905 313.428 268.809 306.29 295.982 290.229L272.11 266.265H220.048C193.637 266.265 172.05 244.596 172.05 218.083V165.821H286.332C303.855 165.821 320.616 172.704 333.06 185.196L415.089 267.54C423.216 275.698 427.533 286.66 427.025 298.132C426.771 309.349 421.692 320.311 413.057 327.704C326.457 403.93 263.729 414.127 213.953 414.127C94.3384 414.127 0.627441 323.371 0.627441 207.375C0.627441 91.1253 94.3384 0.368652 214.207 0.368652C330.267 0.368652 405.439 75.8292 478.325 148.995L537.751 208.65C603.781 274.168 650.509 313.683 716.793 313.683C748.538 313.683 777.743 302.466 798.822 282.071C819.138 262.441 830.313 235.928 830.313 207.375C830.313 178.823 819.138 152.564 798.822 132.68C777.743 112.285 748.792 101.068 716.793 101.068C672.858 101.068 635.78 117.638 588.543 158.173C579.909 165.566 568.988 169.645 557.814 169.645C545.116 169.645 533.434 164.801 524.546 155.879L485.436 116.619L499.15 103.872C565.433 41.668 627.907 0.368652 716.793 0.368652C836.408 0.368652 930.373 91.1253 930.373 207.375C930.373 323.371 836.662 414.127 716.793 414.127Z" fill="url(#paint0_linear_1_1997)"/>
<path d="M716.793 414.127C600.733 414.127 525.561 338.667 452.675 265.5L394.518 207.12C327.981 140.838 280.745 100.813 213.953 100.813C182.208 100.813 153.003 112.03 131.924 132.425C111.608 152.055 100.433 178.568 100.433 207.12C100.433 235.673 111.608 261.931 131.924 281.816C153.003 302.211 181.954 313.428 213.953 313.428C242.905 313.428 268.809 306.29 295.982 290.229L272.11 266.265H220.048C193.637 266.265 172.05 244.596 172.05 218.083V165.821H286.332C303.855 165.821 320.616 172.704 333.06 185.196L415.089 267.54C423.216 275.698 427.533 286.66 427.025 298.132C426.771 309.349 421.692 320.311 413.057 327.704C326.457 403.93 263.729 414.127 213.953 414.127C94.3384 414.127 0.627441 323.371 0.627441 207.375C0.627441 91.1253 94.3384 0.368652 214.207 0.368652C330.267 0.368652 405.439 75.8292 478.325 148.995L537.751 208.65C603.781 274.168 650.509 313.683 716.793 313.683C748.538 313.683 777.743 302.466 798.822 282.071C819.138 262.441 830.313 235.928 830.313 207.375C830.313 178.823 819.138 152.564 798.822 132.68C777.743 112.285 748.792 101.068 716.793 101.068C672.858 101.068 635.78 117.638 588.543 158.173C579.909 165.566 568.988 169.645 557.814 169.645C545.116 169.645 533.434 164.801 524.546 155.879L485.436 116.619L499.15 103.872C565.433 41.668 627.907 0.368652 716.793 0.368652C836.408 0.368652 930.373 91.1253 930.373 207.375C930.373 323.371 836.662 414.127 716.793 414.127Z" fill="url(#paint1_linear_1_1997)"/>
<path d="M557.814 169.39C568.988 169.39 579.909 165.311 588.543 157.918C635.78 117.383 672.858 100.812 716.793 100.812C748.538 100.812 777.743 112.029 798.821 132.424C819.138 152.054 830.058 178.567 830.312 206.865C830.566 211.199 830.566 215.023 829.804 218.082C856.978 98.263 748.791 -39.4016 595.146 30.9603C593.114 31.9801 591.083 33.2547 589.051 34.2745H588.797C586.765 35.2942 584.988 36.5689 582.956 37.5886C582.702 37.5886 582.702 37.8436 582.448 37.8436C580.67 38.8633 578.639 40.138 576.861 41.4126C576.607 41.4126 576.607 41.6676 576.353 41.6676C574.575 42.9422 572.798 43.962 570.766 45.2367C570.512 45.4916 570.258 45.4916 570.004 45.7465C568.226 47.0212 566.449 48.0409 564.671 49.3156C564.417 49.5705 564.163 49.5705 563.909 49.8255C562.131 51.1001 560.354 52.1199 558.83 53.3946C558.576 53.6495 558.068 53.9044 557.814 54.1594C556.036 55.434 554.513 56.4538 552.735 57.7284C552.481 57.9834 551.973 58.2383 551.719 58.4932C550.195 59.7679 548.418 60.7877 546.894 62.0623C546.386 62.3173 546.132 62.8271 545.624 63.0821C544.1 64.3567 542.577 65.3765 541.053 66.6511C540.545 67.161 540.037 67.4159 539.529 67.9258C538.005 69.2005 536.481 70.2202 534.958 71.4949C534.45 72.0048 533.942 72.5146 533.18 72.7696C531.656 74.0442 530.386 75.064 528.863 76.3386C528.101 76.8485 527.593 77.3584 526.831 77.8682C525.561 78.888 524.291 80.1627 522.768 81.1824C522.006 81.9472 521.244 82.4571 520.482 83.2219C519.212 84.2416 517.942 85.2613 516.927 86.536C515.911 87.3008 515.149 88.0656 514.133 89.0854C513.117 90.1051 512.101 90.8699 510.832 91.8896C509.816 92.9094 508.546 93.9291 507.276 94.9489C506.514 95.7137 505.498 96.4785 504.737 97.2433C502.705 99.0278 500.673 101.067 498.642 102.852L484.928 115.599L524.037 154.858C533.434 164.546 545.116 169.39 557.814 169.39Z" fill="url(#paint2_linear_1_1997)"/>
<path d="M391.471 243.576C369.376 251.479 320.616 268.814 287.093 281.051L296.49 290.484C269.316 306.545 243.412 313.683 214.461 313.683C182.716 313.683 153.511 302.466 132.432 282.071C113.893 263.971 102.973 240.262 101.195 214.513H0.881348C4.69074 327.194 96.878 414.382 214.207 414.382C263.983 414.382 326.711 404.185 413.311 327.959C421.692 320.566 426.771 309.859 427.279 298.387C427.533 286.915 423.216 275.953 415.343 267.795L391.471 243.576Z" fill="url(#paint3_linear_1_1997)"/>
<path d="M415.343 267.795L333.314 185.196C320.87 172.704 304.363 165.821 286.586 165.821H172.304L272.618 266.52L296.49 290.484C337.378 331.528 341.441 382.77 296.744 400.871C318.585 393.223 342.457 381.241 368.868 363.14C383.09 353.453 398.074 341.726 413.819 327.959C422.2 320.566 427.279 309.859 427.787 298.387C427.533 286.915 423.216 275.698 415.343 267.795Z" fill="url(#paint4_linear_1_1997)"/>
<path d="M833.36 381.495C772.156 414.892 706.127 377.416 653.557 324.645C600.987 271.874 537.751 208.395 537.751 208.395L478.325 148.74C405.439 75.829 330.267 0.368408 214.207 0.368408C170.78 0.368408 130.909 12.3503 97.6399 33C178.907 -14.4178 246.714 59.0033 293.95 106.421C341.441 154.094 394.518 207.375 394.518 207.375L452.675 265.5C525.561 338.411 600.733 414.127 716.793 414.127C760.22 414.127 799.837 402.145 833.36 381.495Z" fill="url(#paint5_linear_1_1997)"/>
<defs>
<linearGradient id="paint0_linear_1_1997" x1="91.8648" y1="206.76" x2="1021.8" y2="206.76" gradientUnits="userSpaceOnUse">
<stop offset="0.00520833" stop-color="#161617"/>
<stop offset="0.375" stop-color="#161618"/>
<stop offset="0.588542" stop-color="#1D1D1F"/>
<stop offset="0.770833" stop-color="#151516"/>
<stop offset="1" stop-color="#161618"/>
</linearGradient>
<linearGradient id="paint1_linear_1_1997" x1="91.8648" y1="206.76" x2="1021.8" y2="206.76" gradientUnits="userSpaceOnUse">
<stop offset="0.00520833" stop-color="#161617"/>
<stop offset="0.375" stop-color="#161618"/>
<stop offset="0.588542" stop-color="#1D1D1F"/>
<stop offset="0.770833" stop-color="#151516"/>
<stop offset="1" stop-color="#161618"/>
</linearGradient>
<linearGradient id="paint2_linear_1_1997" x1="519.182" y1="114.714" x2="868.319" y2="114.714" gradientUnits="userSpaceOnUse">
<stop offset="0.00520833" stop-color="#161617"/>
<stop offset="0.375" stop-color="#161618"/>
<stop offset="0.588542" stop-color="#1D1D1F"/>
<stop offset="0.770833" stop-color="#151516"/>
<stop offset="1" stop-color="#161618"/>
</linearGradient>
<linearGradient id="paint3_linear_1_1997" x1="42.7255" y1="314.212" x2="469.223" y2="314.212" gradientUnits="userSpaceOnUse">
<stop offset="0.00520833" stop-color="#161617"/>
<stop offset="0.375" stop-color="#161618"/>
<stop offset="0.588542" stop-color="#1D1D1F"/>
<stop offset="0.770833" stop-color="#151516"/>
<stop offset="1" stop-color="#161618"/>
</linearGradient>
<linearGradient id="paint4_linear_1_1997" x1="197.375" y1="283.068" x2="452.911" y2="283.068" gradientUnits="userSpaceOnUse">
<stop offset="0.00520833" stop-color="#161617"/>
<stop offset="0.375" stop-color="#161618"/>
<stop offset="0.588542" stop-color="#1D1D1F"/>
<stop offset="0.770833" stop-color="#151516"/>
<stop offset="1" stop-color="#161618"/>
</linearGradient>
<linearGradient id="paint5_linear_1_1997" x1="169.837" y1="206.759" x2="905.711" y2="206.759" gradientUnits="userSpaceOnUse">
<stop offset="0.00520833" stop-color="#161617"/>
<stop offset="0.375" stop-color="#161618"/>
<stop offset="0.588542" stop-color="#1D1D1F"/>
<stop offset="0.770833" stop-color="#151516"/>
<stop offset="1" stop-color="#161618"/>
</linearGradient>
</defs>
</svg>
