<svg width="1920" height="1848" viewBox="0 0 1920 1848" fill="none" xmlns="http://www.w3.org/2000/svg">
<path d="M-1 0H2003V855V855C1447.7 772.208 885.792 955.407 485.998 1349.59L-19 1847.5L-1 0Z" fill="url(#paint0_linear_103_39)"/>
<mask id="mask0_103_39" style="mask-type:alpha" maskUnits="userSpaceOnUse" x="-19" y="0" width="2022" height="1848">
<path d="M-1 0H2003V855C1447.7 772.208 885.792 955.407 485.998 1349.59L-19 1847.5L-1 0Z" fill="#D9D9D9"/>
</mask>
<g mask="url(#mask0_103_39)">
<mask id="mask1_103_39" style="mask-type:alpha" maskUnits="userSpaceOnUse" x="-162" y="-48" width="2244" height="1324">
<ellipse cx="960" cy="614" rx="1122" ry="662" fill="#0F2A53" fill-opacity="0.35"/>
</mask>
<g mask="url(#mask1_103_39)">
<g opacity="0.24">
<rect x="302.829" y="-375.807" width="1.60286" height="2213.76" fill="#0F2A53" fill-opacity="0.35"/>
<rect x="205.054" y="-375.807" width="1.60286" height="2213.76" fill="#0F2A53" fill-opacity="0.35"/>
<rect x="107.28" y="-375.807" width="1.60286" height="2213.76" fill="#0F2A53" fill-opacity="0.35"/>
<rect x="399" y="-375.807" width="1.60286" height="2213.76" fill="#0F2A53" fill-opacity="0.35"/>
<rect x="495.172" y="-375.807" width="1.60286" height="2213.76" fill="#0F2A53" fill-opacity="0.35"/>
<rect x="591.343" y="-375.807" width="1.60286" height="2213.76" fill="#0F2A53" fill-opacity="0.35"/>
<rect x="687.515" y="-375.807" width="1.60286" height="2213.76" fill="#0F2A53" fill-opacity="0.35"/>
<rect x="783.685" y="-375.807" width="1.60286" height="2213.76" fill="#0F2A53" fill-opacity="0.35"/>
<rect x="879.857" y="-375.807" width="1.60286" height="2213.76" fill="#0F2A53" fill-opacity="0.35"/>
<rect x="976.028" y="-375.807" width="1.60286" height="2213.76" fill="#0F2A53" fill-opacity="0.35"/>
<rect x="1072.2" y="-375.807" width="1.60286" height="2213.76" fill="#0F2A53" fill-opacity="0.35"/>
<rect x="1168.37" y="-375.807" width="1.60286" height="2213.76" fill="#0F2A53" fill-opacity="0.35"/>
<rect x="1264.54" y="-375.807" width="1.60286" height="2213.76" fill="#0F2A53" fill-opacity="0.35"/>
<rect x="1360.71" y="-375.807" width="1.60286" height="2213.76" fill="#0F2A53" fill-opacity="0.35"/>
<rect x="1456.89" y="-375.807" width="1.60286" height="2213.76" fill="#0F2A53" fill-opacity="0.35"/>
<rect x="1553.06" y="-375.807" width="1.60286" height="2213.76" fill="#0F2A53" fill-opacity="0.35"/>
<rect x="1649.23" y="-375.807" width="1.60286" height="2213.76" fill="#0F2A53" fill-opacity="0.35"/>
<rect x="1745.4" y="-375.807" width="1.60286" height="2213.76" fill="#0F2A53" fill-opacity="0.35"/>
<rect x="1841.57" y="-375.807" width="1.60286" height="2213.76" fill="#0F2A53" fill-opacity="0.35"/>
</g>
<g opacity="0.24">
<rect x="-1.71436" y="156.348" width="1923.43" height="2.12862" fill="#0F2A53" fill-opacity="0.35"/>
<rect x="-1.71436" y="286.193" width="1923.43" height="2.12862" fill="#0F2A53" fill-opacity="0.35"/>
<rect x="-1.71436" y="416.039" width="1923.43" height="2.12862" fill="#0F2A53" fill-opacity="0.35"/>
<rect x="-1.71436" y="545.885" width="1923.43" height="2.12862" fill="#0F2A53" fill-opacity="0.35"/>
<rect x="-1.71436" y="677.859" width="1923.43" height="2.12862" fill="#0F2A53" fill-opacity="0.35"/>
<rect x="-1.71436" y="809.833" width="1923.43" height="2.12862" fill="#0F2A53" fill-opacity="0.35"/>
<rect x="-1.71436" y="941.808" width="1923.43" height="2.12862" fill="#0F2A53" fill-opacity="0.35"/>
<rect x="-1.71436" y="1073.78" width="1923.43" height="2.12862" fill="#0F2A53" fill-opacity="0.35"/>
<rect x="-1.71436" y="1203.63" width="1923.43" height="2.12862" fill="#0F2A53" fill-opacity="0.35"/>
</g>
<g opacity="0.24">
<ellipse cx="108.082" cy="1206.82" rx="4.00714" ry="5.32154" fill="#0F2A53" fill-opacity="0.35"/>
<ellipse cx="205.856" cy="1206.82" rx="4.00714" ry="5.32154" fill="#0F2A53" fill-opacity="0.35"/>
<ellipse cx="303.63" cy="1206.82" rx="4.00714" ry="5.32154" fill="#0F2A53" fill-opacity="0.35"/>
<ellipse cx="399.802" cy="1206.82" rx="4.00714" ry="5.32154" fill="#0F2A53" fill-opacity="0.35"/>
<ellipse cx="495.973" cy="1206.82" rx="4.00714" ry="5.32154" fill="#0F2A53" fill-opacity="0.35"/>
<ellipse cx="592.144" cy="1206.82" rx="4.00714" ry="5.32154" fill="#0F2A53" fill-opacity="0.35"/>
<ellipse cx="688.316" cy="1206.82" rx="4.00714" ry="5.32154" fill="#0F2A53" fill-opacity="0.35"/>
<ellipse cx="784.487" cy="1206.82" rx="4.00714" ry="5.32154" fill="#0F2A53" fill-opacity="0.35"/>
<ellipse cx="880.659" cy="1206.82" rx="4.00714" ry="5.32154" fill="#0F2A53" fill-opacity="0.35"/>
<ellipse cx="976.83" cy="1206.82" rx="4.00714" ry="5.32154" fill="#0F2A53" fill-opacity="0.35"/>
<ellipse cx="1073" cy="1206.82" rx="4.00714" ry="5.32154" fill="#0F2A53" fill-opacity="0.35"/>
<ellipse cx="1169.17" cy="1206.82" rx="4.00714" ry="5.32154" fill="#0F2A53" fill-opacity="0.35"/>
<ellipse cx="1265.34" cy="1206.82" rx="4.00714" ry="5.32154" fill="#0F2A53" fill-opacity="0.35"/>
<ellipse cx="1361.52" cy="1206.82" rx="4.00714" ry="5.32154" fill="#0F2A53" fill-opacity="0.35"/>
<ellipse cx="1457.69" cy="1206.82" rx="4.00714" ry="5.32154" fill="#0F2A53" fill-opacity="0.35"/>
<ellipse cx="1553.86" cy="1206.82" rx="4.00714" ry="5.32154" fill="#0F2A53" fill-opacity="0.35"/>
<ellipse cx="1650.03" cy="1206.82" rx="4.00714" ry="5.32154" fill="#0F2A53" fill-opacity="0.35"/>
<ellipse cx="1746.2" cy="1206.82" rx="4.00714" ry="5.32154" fill="#0F2A53" fill-opacity="0.35"/>
<ellipse cx="108.082" cy="1074.85" rx="4.00714" ry="5.32154" fill="#0F2A53" fill-opacity="0.35"/>
<ellipse cx="205.856" cy="1074.85" rx="4.00714" ry="5.32154" fill="#0F2A53" fill-opacity="0.35"/>
<ellipse cx="303.63" cy="1074.85" rx="4.00714" ry="5.32154" fill="#0F2A53" fill-opacity="0.35"/>
<ellipse cx="399.802" cy="1074.85" rx="4.00714" ry="5.32154" fill="#0F2A53" fill-opacity="0.35"/>
<ellipse cx="495.973" cy="1074.85" rx="4.00714" ry="5.32154" fill="#0F2A53" fill-opacity="0.35"/>
<ellipse cx="592.144" cy="1074.85" rx="4.00714" ry="5.32154" fill="#0F2A53" fill-opacity="0.35"/>
<ellipse cx="688.316" cy="1074.85" rx="4.00714" ry="5.32154" fill="#0F2A53" fill-opacity="0.35"/>
<ellipse cx="784.487" cy="1074.85" rx="4.00714" ry="5.32154" fill="#0F2A53" fill-opacity="0.35"/>
<ellipse cx="880.659" cy="1074.85" rx="4.00714" ry="5.32154" fill="#0F2A53" fill-opacity="0.35"/>
<ellipse cx="976.83" cy="1074.85" rx="4.00714" ry="5.32154" fill="#0F2A53" fill-opacity="0.35"/>
<ellipse cx="1073" cy="1074.85" rx="4.00714" ry="5.32154" fill="#0F2A53" fill-opacity="0.35"/>
<ellipse cx="1169.17" cy="1074.85" rx="4.00714" ry="5.32154" fill="#0F2A53" fill-opacity="0.35"/>
<ellipse cx="1265.34" cy="1074.85" rx="4.00714" ry="5.32154" fill="#0F2A53" fill-opacity="0.35"/>
<ellipse cx="1361.52" cy="1074.85" rx="4.00714" ry="5.32154" fill="#0F2A53" fill-opacity="0.35"/>
<ellipse cx="1457.69" cy="1074.85" rx="4.00714" ry="5.32154" fill="#0F2A53" fill-opacity="0.35"/>
<ellipse cx="1553.86" cy="1074.85" rx="4.00714" ry="5.32154" fill="#0F2A53" fill-opacity="0.35"/>
<ellipse cx="1650.03" cy="1074.85" rx="4.00714" ry="5.32154" fill="#0F2A53" fill-opacity="0.35"/>
<ellipse cx="1746.2" cy="1074.85" rx="4.00714" ry="5.32154" fill="#0F2A53" fill-opacity="0.35"/>
<ellipse cx="1842.37" cy="1074.85" rx="4.00714" ry="5.32154" fill="#0F2A53" fill-opacity="0.35"/>
<ellipse cx="108.082" cy="942.872" rx="4.00714" ry="5.32154" fill="#0F2A53" fill-opacity="0.35"/>
<ellipse cx="205.856" cy="942.872" rx="4.00714" ry="5.32154" fill="#0F2A53" fill-opacity="0.35"/>
<ellipse cx="303.63" cy="942.872" rx="4.00714" ry="5.32154" fill="#0F2A53" fill-opacity="0.35"/>
<ellipse cx="399.802" cy="942.872" rx="4.00714" ry="5.32154" fill="#0F2A53" fill-opacity="0.35"/>
<ellipse cx="495.973" cy="942.872" rx="4.00714" ry="5.32154" fill="#0F2A53" fill-opacity="0.35"/>
<ellipse cx="592.144" cy="942.872" rx="4.00714" ry="5.32154" fill="#0F2A53" fill-opacity="0.35"/>
<ellipse cx="688.316" cy="942.872" rx="4.00714" ry="5.32154" fill="#0F2A53" fill-opacity="0.35"/>
<ellipse cx="784.487" cy="942.872" rx="4.00714" ry="5.32154" fill="#0F2A53" fill-opacity="0.35"/>
<ellipse cx="880.659" cy="942.872" rx="4.00714" ry="5.32154" fill="#0F2A53" fill-opacity="0.35"/>
<ellipse cx="976.83" cy="942.872" rx="4.00714" ry="5.32154" fill="#0F2A53" fill-opacity="0.35"/>
<ellipse cx="1073" cy="942.872" rx="4.00714" ry="5.32154" fill="#0F2A53" fill-opacity="0.35"/>
<ellipse cx="1169.17" cy="942.872" rx="4.00714" ry="5.32154" fill="#0F2A53" fill-opacity="0.35"/>
<ellipse cx="1265.34" cy="942.872" rx="4.00714" ry="5.32154" fill="#0F2A53" fill-opacity="0.35"/>
<ellipse cx="1361.52" cy="942.872" rx="4.00714" ry="5.32154" fill="#0F2A53" fill-opacity="0.35"/>
<ellipse cx="1457.69" cy="942.872" rx="4.00714" ry="5.32154" fill="#0F2A53" fill-opacity="0.35"/>
<ellipse cx="1553.86" cy="942.872" rx="4.00714" ry="5.32154" fill="#0F2A53" fill-opacity="0.35"/>
<ellipse cx="1650.03" cy="942.872" rx="4.00714" ry="5.32154" fill="#0F2A53" fill-opacity="0.35"/>
<ellipse cx="1746.2" cy="942.872" rx="4.00714" ry="5.32154" fill="#0F2A53" fill-opacity="0.35"/>
<ellipse cx="1842.37" cy="942.872" rx="4.00714" ry="5.32154" fill="#0F2A53" fill-opacity="0.35"/>
<ellipse cx="108.082" cy="810.898" rx="4.00714" ry="5.32154" fill="#0F2A53" fill-opacity="0.35"/>
<ellipse cx="205.856" cy="810.898" rx="4.00714" ry="5.32154" fill="#0F2A53" fill-opacity="0.35"/>
<ellipse cx="303.63" cy="810.898" rx="4.00714" ry="5.32154" fill="#0F2A53" fill-opacity="0.35"/>
<ellipse cx="399.802" cy="810.898" rx="4.00714" ry="5.32154" fill="#0F2A53" fill-opacity="0.35"/>
<ellipse cx="495.973" cy="810.898" rx="4.00714" ry="5.32154" fill="#0F2A53" fill-opacity="0.35"/>
<ellipse cx="592.144" cy="810.898" rx="4.00714" ry="5.32154" fill="#0F2A53" fill-opacity="0.35"/>
<ellipse cx="688.316" cy="810.898" rx="4.00714" ry="5.32154" fill="#0F2A53" fill-opacity="0.35"/>
<ellipse cx="784.487" cy="810.898" rx="4.00714" ry="5.32154" fill="#0F2A53" fill-opacity="0.35"/>
<ellipse cx="880.659" cy="810.898" rx="4.00714" ry="5.32154" fill="#0F2A53" fill-opacity="0.35"/>
<ellipse cx="976.83" cy="810.898" rx="4.00714" ry="5.32154" fill="#0F2A53" fill-opacity="0.35"/>
<ellipse cx="1073" cy="810.898" rx="4.00714" ry="5.32154" fill="#0F2A53" fill-opacity="0.35"/>
<ellipse cx="1169.17" cy="810.898" rx="4.00714" ry="5.32154" fill="#0F2A53" fill-opacity="0.35"/>
<ellipse cx="1265.34" cy="810.898" rx="4.00714" ry="5.32154" fill="#0F2A53" fill-opacity="0.35"/>
<ellipse cx="1361.52" cy="810.898" rx="4.00714" ry="5.32154" fill="#0F2A53" fill-opacity="0.35"/>
<ellipse cx="1457.69" cy="810.898" rx="4.00714" ry="5.32154" fill="#0F2A53" fill-opacity="0.35"/>
<ellipse cx="1553.86" cy="810.898" rx="4.00714" ry="5.32154" fill="#0F2A53" fill-opacity="0.35"/>
<ellipse cx="1650.03" cy="810.898" rx="4.00714" ry="5.32154" fill="#0F2A53" fill-opacity="0.35"/>
<ellipse cx="1746.2" cy="810.898" rx="4.00714" ry="5.32154" fill="#0F2A53" fill-opacity="0.35"/>
<ellipse cx="1842.37" cy="810.898" rx="4.00714" ry="5.32154" fill="#0F2A53" fill-opacity="0.35"/>
<ellipse cx="108.082" cy="678.923" rx="4.00714" ry="5.32154" fill="#0F2A53" fill-opacity="0.35"/>
<ellipse cx="205.856" cy="678.923" rx="4.00714" ry="5.32154" fill="#0F2A53" fill-opacity="0.35"/>
<ellipse cx="303.63" cy="678.923" rx="4.00714" ry="5.32154" fill="#0F2A53" fill-opacity="0.35"/>
<ellipse cx="399.802" cy="678.923" rx="4.00714" ry="5.32154" fill="#0F2A53" fill-opacity="0.35"/>
<ellipse cx="495.973" cy="678.923" rx="4.00714" ry="5.32154" fill="#0F2A53" fill-opacity="0.35"/>
<ellipse cx="592.144" cy="678.923" rx="4.00714" ry="5.32154" fill="#0F2A53" fill-opacity="0.35"/>
<ellipse cx="688.316" cy="678.923" rx="4.00714" ry="5.32154" fill="#0F2A53" fill-opacity="0.35"/>
<ellipse cx="784.487" cy="678.923" rx="4.00714" ry="5.32154" fill="#0F2A53" fill-opacity="0.35"/>
<ellipse cx="880.659" cy="678.923" rx="4.00714" ry="5.32154" fill="#0F2A53" fill-opacity="0.35"/>
<ellipse cx="976.83" cy="678.923" rx="4.00714" ry="5.32154" fill="#0F2A53" fill-opacity="0.35"/>
<ellipse cx="1073" cy="678.923" rx="4.00714" ry="5.32154" fill="#0F2A53" fill-opacity="0.35"/>
<ellipse cx="1169.17" cy="678.923" rx="4.00714" ry="5.32154" fill="#0F2A53" fill-opacity="0.35"/>
<ellipse cx="1265.34" cy="678.923" rx="4.00714" ry="5.32154" fill="#0F2A53" fill-opacity="0.35"/>
<ellipse cx="1361.52" cy="678.923" rx="4.00714" ry="5.32154" fill="#0F2A53" fill-opacity="0.35"/>
<ellipse cx="1457.69" cy="678.923" rx="4.00714" ry="5.32154" fill="#0F2A53" fill-opacity="0.35"/>
<ellipse cx="1553.86" cy="678.923" rx="4.00714" ry="5.32154" fill="#0F2A53" fill-opacity="0.35"/>
<ellipse cx="1650.03" cy="678.923" rx="4.00714" ry="5.32154" fill="#0F2A53" fill-opacity="0.35"/>
<ellipse cx="1746.2" cy="678.923" rx="4.00714" ry="5.32154" fill="#0F2A53" fill-opacity="0.35"/>
<ellipse cx="1842.37" cy="678.923" rx="4.00714" ry="5.32154" fill="#0F2A53" fill-opacity="0.35"/>
<ellipse cx="108.082" cy="546.949" rx="4.00714" ry="5.32154" fill="#0F2A53" fill-opacity="0.35"/>
<ellipse cx="205.856" cy="546.949" rx="4.00714" ry="5.32154" fill="#0F2A53" fill-opacity="0.35"/>
<ellipse cx="303.63" cy="546.949" rx="4.00714" ry="5.32154" fill="#0F2A53" fill-opacity="0.35"/>
<ellipse cx="399.802" cy="546.949" rx="4.00714" ry="5.32154" fill="#0F2A53" fill-opacity="0.35"/>
<ellipse cx="495.973" cy="546.949" rx="4.00714" ry="5.32154" fill="#0F2A53" fill-opacity="0.35"/>
<ellipse cx="592.144" cy="546.949" rx="4.00714" ry="5.32154" fill="#0F2A53" fill-opacity="0.35"/>
<ellipse cx="688.316" cy="546.949" rx="4.00714" ry="5.32154" fill="#0F2A53" fill-opacity="0.35"/>
<ellipse cx="784.487" cy="546.949" rx="4.00714" ry="5.32154" fill="#0F2A53" fill-opacity="0.35"/>
<ellipse cx="880.659" cy="546.949" rx="4.00714" ry="5.32154" fill="#0F2A53" fill-opacity="0.35"/>
<ellipse cx="976.83" cy="546.949" rx="4.00714" ry="5.32154" fill="#0F2A53" fill-opacity="0.35"/>
<ellipse cx="1073" cy="546.949" rx="4.00714" ry="5.32154" fill="#0F2A53" fill-opacity="0.35"/>
<ellipse cx="1169.17" cy="546.949" rx="4.00714" ry="5.32154" fill="#0F2A53" fill-opacity="0.35"/>
<ellipse cx="1265.34" cy="546.949" rx="4.00714" ry="5.32154" fill="#0F2A53" fill-opacity="0.35"/>
<ellipse cx="1361.52" cy="546.949" rx="4.00714" ry="5.32154" fill="#0F2A53" fill-opacity="0.35"/>
<ellipse cx="1457.69" cy="546.949" rx="4.00714" ry="5.32154" fill="#0F2A53" fill-opacity="0.35"/>
<ellipse cx="1553.86" cy="546.949" rx="4.00714" ry="5.32154" fill="#0F2A53" fill-opacity="0.35"/>
<ellipse cx="1650.03" cy="546.949" rx="4.00714" ry="5.32154" fill="#0F2A53" fill-opacity="0.35"/>
<ellipse cx="1746.2" cy="546.949" rx="4.00714" ry="5.32154" fill="#0F2A53" fill-opacity="0.35"/>
<ellipse cx="1842.37" cy="546.949" rx="4.00714" ry="5.32154" fill="#0F2A53" fill-opacity="0.35"/>
<ellipse cx="108.082" cy="417.103" rx="4.00714" ry="5.32154" fill="#0F2A53" fill-opacity="0.35"/>
<ellipse cx="205.856" cy="417.103" rx="4.00714" ry="5.32154" fill="#0F2A53" fill-opacity="0.35"/>
<ellipse cx="303.63" cy="417.103" rx="4.00714" ry="5.32154" fill="#0F2A53" fill-opacity="0.35"/>
<ellipse cx="399.802" cy="417.103" rx="4.00714" ry="5.32154" fill="#0F2A53" fill-opacity="0.35"/>
<ellipse cx="495.973" cy="417.103" rx="4.00714" ry="5.32154" fill="#0F2A53" fill-opacity="0.35"/>
<ellipse cx="592.144" cy="417.103" rx="4.00714" ry="5.32154" fill="#0F2A53" fill-opacity="0.35"/>
<ellipse cx="688.316" cy="417.103" rx="4.00714" ry="5.32154" fill="#0F2A53" fill-opacity="0.35"/>
<ellipse cx="784.487" cy="417.103" rx="4.00714" ry="5.32154" fill="#0F2A53" fill-opacity="0.35"/>
<ellipse cx="880.659" cy="417.103" rx="4.00714" ry="5.32154" fill="#0F2A53" fill-opacity="0.35"/>
<ellipse cx="976.83" cy="417.103" rx="4.00714" ry="5.32154" fill="#0F2A53" fill-opacity="0.35"/>
<ellipse cx="1073" cy="417.103" rx="4.00714" ry="5.32154" fill="#0F2A53" fill-opacity="0.35"/>
<ellipse cx="1169.17" cy="417.103" rx="4.00714" ry="5.32154" fill="#0F2A53" fill-opacity="0.35"/>
<ellipse cx="1265.34" cy="417.103" rx="4.00714" ry="5.32154" fill="#0F2A53" fill-opacity="0.35"/>
<ellipse cx="1361.52" cy="417.103" rx="4.00714" ry="5.32154" fill="#0F2A53" fill-opacity="0.35"/>
<ellipse cx="1457.69" cy="417.103" rx="4.00714" ry="5.32154" fill="#0F2A53" fill-opacity="0.35"/>
<ellipse cx="1553.86" cy="417.103" rx="4.00714" ry="5.32154" fill="#0F2A53" fill-opacity="0.35"/>
<ellipse cx="1650.03" cy="417.103" rx="4.00714" ry="5.32154" fill="#0F2A53" fill-opacity="0.35"/>
<ellipse cx="1746.2" cy="417.103" rx="4.00714" ry="5.32154" fill="#0F2A53" fill-opacity="0.35"/>
<ellipse cx="1842.37" cy="417.103" rx="4.00714" ry="5.32154" fill="#0F2A53" fill-opacity="0.35"/>
<ellipse cx="108.082" cy="287.258" rx="4.00714" ry="5.32154" fill="#0F2A53" fill-opacity="0.35"/>
<ellipse cx="205.856" cy="287.258" rx="4.00714" ry="5.32154" fill="#0F2A53" fill-opacity="0.35"/>
<ellipse cx="303.63" cy="287.258" rx="4.00714" ry="5.32154" fill="#0F2A53" fill-opacity="0.35"/>
<ellipse cx="399.802" cy="287.258" rx="4.00714" ry="5.32154" fill="#0F2A53" fill-opacity="0.35"/>
<ellipse cx="495.973" cy="287.258" rx="4.00714" ry="5.32154" fill="#0F2A53" fill-opacity="0.35"/>
<ellipse cx="592.144" cy="287.258" rx="4.00714" ry="5.32154" fill="#0F2A53" fill-opacity="0.35"/>
<ellipse cx="688.316" cy="287.258" rx="4.00714" ry="5.32154" fill="#0F2A53" fill-opacity="0.35"/>
<ellipse cx="784.487" cy="287.258" rx="4.00714" ry="5.32154" fill="#0F2A53" fill-opacity="0.35"/>
<ellipse cx="880.659" cy="287.258" rx="4.00714" ry="5.32154" fill="#0F2A53" fill-opacity="0.35"/>
<ellipse cx="976.83" cy="287.258" rx="4.00714" ry="5.32154" fill="#0F2A53" fill-opacity="0.35"/>
<ellipse cx="1073" cy="287.258" rx="4.00714" ry="5.32154" fill="#0F2A53" fill-opacity="0.35"/>
<ellipse cx="1169.17" cy="287.258" rx="4.00714" ry="5.32154" fill="#0F2A53" fill-opacity="0.35"/>
<ellipse cx="1265.34" cy="287.258" rx="4.00714" ry="5.32154" fill="#0F2A53" fill-opacity="0.35"/>
<ellipse cx="1361.52" cy="287.258" rx="4.00714" ry="5.32154" fill="#0F2A53" fill-opacity="0.35"/>
<ellipse cx="1457.69" cy="287.258" rx="4.00714" ry="5.32154" fill="#0F2A53" fill-opacity="0.35"/>
<ellipse cx="1553.86" cy="287.258" rx="4.00714" ry="5.32154" fill="#0F2A53" fill-opacity="0.35"/>
<ellipse cx="1650.03" cy="287.258" rx="4.00714" ry="5.32154" fill="#0F2A53" fill-opacity="0.35"/>
<ellipse cx="1746.2" cy="287.258" rx="4.00714" ry="5.32154" fill="#0F2A53" fill-opacity="0.35"/>
<ellipse cx="1842.37" cy="287.258" rx="4.00714" ry="5.32154" fill="#0F2A53" fill-opacity="0.35"/>
<ellipse cx="108.082" cy="157.412" rx="4.00714" ry="5.32154" fill="#0F2A53" fill-opacity="0.35"/>
<ellipse cx="205.856" cy="157.412" rx="4.00714" ry="5.32154" fill="#0F2A53" fill-opacity="0.35"/>
<ellipse cx="303.63" cy="157.412" rx="4.00714" ry="5.32154" fill="#0F2A53" fill-opacity="0.35"/>
<ellipse cx="399.802" cy="157.412" rx="4.00714" ry="5.32154" fill="#0F2A53" fill-opacity="0.35"/>
<ellipse cx="495.973" cy="157.412" rx="4.00714" ry="5.32154" fill="#0F2A53" fill-opacity="0.35"/>
<ellipse cx="592.144" cy="157.412" rx="4.00714" ry="5.32154" fill="#0F2A53" fill-opacity="0.35"/>
<ellipse cx="688.316" cy="157.412" rx="4.00714" ry="5.32154" fill="#0F2A53" fill-opacity="0.35"/>
<ellipse cx="784.487" cy="157.412" rx="4.00714" ry="5.32154" fill="#0F2A53" fill-opacity="0.35"/>
<ellipse cx="880.659" cy="157.412" rx="4.00714" ry="5.32154" fill="#0F2A53" fill-opacity="0.35"/>
<ellipse cx="976.83" cy="157.412" rx="4.00714" ry="5.32154" fill="#0F2A53" fill-opacity="0.35"/>
<ellipse cx="1073" cy="157.412" rx="4.00714" ry="5.32154" fill="#0F2A53" fill-opacity="0.35"/>
<ellipse cx="1169.17" cy="157.412" rx="4.00714" ry="5.32154" fill="#0F2A53" fill-opacity="0.35"/>
<ellipse cx="1265.34" cy="157.412" rx="4.00714" ry="5.32154" fill="#0F2A53" fill-opacity="0.35"/>
<ellipse cx="1361.52" cy="157.412" rx="4.00714" ry="5.32154" fill="#0F2A53" fill-opacity="0.35"/>
<ellipse cx="1457.69" cy="157.412" rx="4.00714" ry="5.32154" fill="#0F2A53" fill-opacity="0.35"/>
<ellipse cx="1553.86" cy="157.412" rx="4.00714" ry="5.32154" fill="#0F2A53" fill-opacity="0.35"/>
<ellipse cx="1650.03" cy="157.412" rx="4.00714" ry="5.32154" fill="#0F2A53" fill-opacity="0.35"/>
<ellipse cx="1746.2" cy="157.412" rx="4.00714" ry="5.32154" fill="#0F2A53" fill-opacity="0.35"/>
<ellipse cx="1842.37" cy="157.412" rx="4.00714" ry="5.32154" fill="#0F2A53" fill-opacity="0.35"/>
</g>
</g>
</g>
<defs>
<linearGradient id="paint0_linear_103_39" x1="-18.9999" y1="1769.5" x2="750.5" y2="-948.5" gradientUnits="userSpaceOnUse">
<stop stop-color="#FF7464" stop-opacity="0.51"/>
<stop offset="0.488603" stop-color="#3E49F3" stop-opacity="0.19"/>
<stop offset="1" stop-color="white" stop-opacity="0"/>
</linearGradient>
</defs>
</svg>
