<svg width="19" height="20" viewBox="0 0 19 20" fill="none" xmlns="http://www.w3.org/2000/svg">
<path d="M6.15776 0.000244141H2.06224C0.925133 0.000244141 0 0.925377 0 2.06249V6.158C0 7.29511 0.925133 8.22024 2.06224 8.22024H6.15776C7.29487 8.22024 8.22 7.29511 8.22 6.158V2.06249C8.22 0.925377 7.29487 0.000244141 6.15776 0.000244141ZM6.82678 6.158C6.82678 6.52689 6.52665 6.82702 6.15776 6.82702H2.06224C1.69335 6.82702 1.39322 6.52689 1.39322 6.158V2.06249C1.39322 1.6936 1.69335 1.39346 2.06224 1.39346H6.15776C6.52665 1.39346 6.82678 1.6936 6.82678 2.06249V6.158Z" fill="black"/>
<path d="M16.9075 0H12.8672C11.7148 0 10.7773 0.937498 10.7773 2.08983V6.13017C10.7773 7.2825 11.7148 8.22 12.8672 8.22H16.9075C18.0598 8.22 18.9973 7.2825 18.9973 6.13017V2.08983C18.9973 0.937498 18.0598 0 16.9075 0ZM17.6041 6.13017C17.6041 6.51428 17.2916 6.82678 16.9075 6.82678H12.8672C12.4831 6.82678 12.1706 6.51428 12.1706 6.13017V2.08983C12.1706 1.70572 12.4831 1.39322 12.8672 1.39322H16.9075C17.2916 1.39322 17.6041 1.70572 17.6041 2.08983V6.13017Z" fill="black"/>
<path d="M6.15776 10.7815H2.06224C0.925133 10.7815 0 11.7066 0 12.8437V16.9392C0 18.0764 0.925133 19.0015 2.06224 19.0015H6.15776C7.29487 19.0015 8.22 18.0764 8.22 16.9392V12.8437C8.22 11.7066 7.29487 10.7815 6.15776 10.7815ZM6.82678 16.9392C6.82678 17.3081 6.52665 17.6083 6.15776 17.6083H2.06224C1.69335 17.6083 1.39322 17.3081 1.39322 16.9392V12.8437C1.39322 12.4748 1.69335 12.1747 2.06224 12.1747H6.15776C6.52665 12.1747 6.82678 12.4748 6.82678 12.8437V16.9392Z" fill="black"/>
<path d="M16.9114 10.7815H12.8711C11.7187 10.7815 10.7812 11.719 10.7812 12.8713V16.9117C10.7812 18.064 11.7187 19.0015 12.8711 19.0015H16.9114C18.0638 19.0015 19.0013 18.064 19.0013 16.9117V12.8713C19.0013 11.719 18.0638 10.7815 16.9114 10.7815ZM17.608 16.9117C17.608 17.2958 17.2955 17.6083 16.9114 17.6083H12.8711C12.487 17.6083 12.1745 17.2958 12.1745 16.9117V12.8713C12.1745 12.4872 12.487 12.1747 12.8711 12.1747H16.9114C17.2955 12.1747 17.608 12.4872 17.608 12.8713V16.9117Z" fill="black"/>
</svg>
