<svg width="21" height="17" viewBox="0 0 21 17" fill="none" xmlns="http://www.w3.org/2000/svg">
<path d="M19.9537 16.1257H5.91113C5.33237 16.1257 4.86328 15.6566 4.86328 15.0779C4.86328 14.4991 5.33237 14.03 5.91113 14.03H19.9534C20.5322 14.03 21.0012 14.4991 21.0012 15.0779C21.0012 15.6566 20.5325 16.1257 19.9537 16.1257Z" fill="black"/>
<path d="M19.9537 9.54834H5.91113C5.33237 9.54834 4.86328 9.07925 4.86328 8.50049C4.86328 7.92173 5.33237 7.45264 5.91113 7.45264H19.9534C20.5322 7.45264 21.0012 7.92173 21.0012 8.50049C21.0016 9.07925 20.5325 9.54834 19.9537 9.54834Z" fill="black"/>
<path d="M19.9537 2.97095H5.91113C5.33237 2.97095 4.86328 2.50186 4.86328 1.9231C4.86328 1.34433 5.33237 0.875244 5.91113 0.875244H19.9534C20.5322 0.875244 21.0012 1.34433 21.0012 1.9231C21.0012 2.50186 20.5325 2.97095 19.9537 2.97095Z" fill="black"/>
<path d="M1.40726 3.41145C2.18448 3.41145 2.81453 2.7814 2.81453 2.00419C2.81453 1.22698 2.18448 0.596924 1.40726 0.596924C0.630054 0.596924 0 1.22698 0 2.00419C0 2.7814 0.630054 3.41145 1.40726 3.41145Z" fill="black"/>
<path d="M1.40726 9.90779C2.18448 9.90779 2.81453 9.27774 2.81453 8.50053C2.81453 7.72332 2.18448 7.09326 1.40726 7.09326C0.630054 7.09326 0 7.72332 0 8.50053C0 9.27774 0.630054 9.90779 1.40726 9.90779Z" fill="black"/>
<path d="M1.40726 16.4041C2.18448 16.4041 2.81453 15.7741 2.81453 14.9968C2.81453 14.2196 2.18448 13.5896 1.40726 13.5896C0.630054 13.5896 0 14.2196 0 14.9968C0 15.7741 0.630054 16.4041 1.40726 16.4041Z" fill="black"/>
</svg>
