<svg width="45" height="45" viewBox="0 0 45 45" fill="none" xmlns="http://www.w3.org/2000/svg">
<path d="M41.25 24.375V16.875C41.25 7.5 37.5 3.75 28.125 3.75H16.875C7.5 3.75 3.75 7.5 3.75 16.875V28.125C3.75 37.5 7.5 41.25 16.875 41.25H24.375" stroke="white" stroke-width="2" stroke-linecap="round" stroke-linejoin="round"/>
<path d="M13.7437 27.1688L18.2062 21.375C18.8437 20.55 20.0249 20.4 20.8499 21.0375L24.2812 23.7375C25.1062 24.375 26.2874 24.225 26.9249 23.4188L31.2562 17.8312" stroke="white" stroke-width="2" stroke-linecap="round" stroke-linejoin="round"/>
<path opacity="0.4" d="M36.5248 29.6625L37.0498 30.7312C37.3123 31.2562 37.9685 31.7438 38.5498 31.8563L39.2623 31.9688C41.3998 32.325 41.906 33.9 40.3685 35.4563L39.7123 36.1125C39.281 36.5625 39.0373 37.425 39.1686 38.025L39.2623 38.4188C39.8435 41.0063 38.4748 42 36.2248 40.65L35.7373 40.3687C35.156 40.0312 34.2185 40.0312 33.6373 40.3687L33.1498 40.65C30.881 42.0187 29.5123 41.0063 30.1123 38.4188L30.206 38.025C30.3373 37.425 30.0935 36.5625 29.6623 36.1125L29.006 35.4563C27.4685 33.9 27.9748 32.325 30.1123 31.9688L30.8248 31.8563C31.3873 31.7625 32.0623 31.2562 32.3248 30.7312L32.8498 29.6625C33.8623 27.6188 35.5123 27.6188 36.5248 29.6625Z" stroke="white" stroke-width="2" stroke-linecap="round" stroke-linejoin="round"/>
</svg>
