<svg width="38" height="38" viewBox="0 0 38 38" fill="none" xmlns="http://www.w3.org/2000/svg">
<path opacity="0.4" d="M19.0002 23.5601C17.5594 23.5601 16.3877 22.3884 16.3877 20.9475V17.0367C16.3877 15.5959 17.5594 14.4242 19.0002 14.4242C20.441 14.4242 21.6127 15.5959 21.6127 17.0367V20.9475C21.6127 22.3884 20.441 23.5601 19.0002 23.5601Z" stroke="white" stroke-width="2" stroke-linecap="round"/>
<path d="M26.8852 21.3275C26.5685 25.4125 23.1485 28.6108 19.0002 28.6108C14.6302 28.6108 11.0835 25.0642 11.0835 20.6942V17.3058C11.0835 12.9358 14.6302 9.38916 19.0002 9.38916C23.101 9.38916 26.4735 12.5083 26.8693 16.4983" stroke="white" stroke-width="2" stroke-linecap="round"/>
<path opacity="0.4" d="M23.75 3.16663H26.9167C31.6667 3.16663 34.8333 6.33329 34.8333 11.0833V14.25" stroke="white" stroke-width="2" stroke-miterlimit="10" stroke-linecap="round" stroke-linejoin="round"/>
<path d="M3.1665 14.25V11.0833C3.1665 6.33329 6.33317 3.16663 11.0832 3.16663H14.2498" stroke="white" stroke-width="2" stroke-miterlimit="10" stroke-linecap="round" stroke-linejoin="round"/>
<path d="M23.75 34.8333H26.9167C31.6667 34.8333 34.8333 31.6667 34.8333 26.9167V23.75" stroke="white" stroke-width="2" stroke-miterlimit="10" stroke-linecap="round" stroke-linejoin="round"/>
<path opacity="0.4" d="M3.1665 23.75V26.9167C3.1665 31.6667 6.33317 34.8333 11.0832 34.8333H14.2498" stroke="white" stroke-width="2" stroke-miterlimit="10" stroke-linecap="round" stroke-linejoin="round"/>
</svg>
