<svg width="38" height="38" viewBox="0 0 38 38" fill="none" xmlns="http://www.w3.org/2000/svg">
<path opacity="0.4" d="M19.0001 12.4926L17.3059 15.4376C16.9259 16.0867 17.2426 16.6251 17.9868 16.6251H19.9976C20.7576 16.6251 21.0584 17.1634 20.6784 17.8126L19.0001 20.7576" stroke="white" stroke-width="2" stroke-linecap="round" stroke-linejoin="round"/>
<path d="M13.1415 28.5633V26.7266C9.49982 24.5258 6.50732 20.235 6.50732 15.675C6.50732 7.83745 13.7115 1.69412 21.8498 3.46745C25.4282 4.25912 28.5632 6.63412 30.194 9.91162C33.5032 16.5616 30.0198 23.6233 24.9057 26.7108V28.5475C24.9057 29.0066 25.0798 30.0675 23.3857 30.0675H14.6615C12.9198 30.0833 13.1415 29.4025 13.1415 28.5633Z" stroke="white" stroke-width="2" stroke-linecap="round" stroke-linejoin="round"/>
<path opacity="0.4" d="M13.4585 34.8333C17.0843 33.8041 20.916 33.8041 24.5418 34.8333" stroke="white" stroke-width="2" stroke-linecap="round" stroke-linejoin="round"/>
</svg>
