<svg width="38" height="38" viewBox="0 0 38 38" fill="none" xmlns="http://www.w3.org/2000/svg">
<path opacity="0.4" d="M17.4485 30.875H11.8752C10.8935 30.875 10.0227 30.8433 9.24683 30.7325C5.08266 30.2733 3.9585 28.31 3.9585 22.9583V15.0417C3.9585 9.69 5.08266 7.72667 9.24683 7.2675C10.0227 7.15667 10.8935 7.125 11.8752 7.125H17.3535" stroke="white" stroke-width="2" stroke-linecap="round" stroke-linejoin="round"/>
<path d="M23.7817 7.125H26.1251C27.1067 7.125 27.9776 7.15667 28.7534 7.2675C32.9176 7.72667 34.0417 9.69 34.0417 15.0417V22.9583C34.0417 28.31 32.9176 30.2733 28.7534 30.7325C27.9776 30.8433 27.1067 30.875 26.1251 30.875H23.7817" stroke="white" stroke-width="2" stroke-linecap="round" stroke-linejoin="round"/>
<path d="M23.75 3.16663V34.8333" stroke="white" stroke-width="2" stroke-linecap="round" stroke-linejoin="round"/>
<path opacity="0.4" d="M17.5662 19H17.5804" stroke="white" stroke-width="2" stroke-linecap="round" stroke-linejoin="round"/>
<path opacity="0.4" d="M11.2332 19H11.2474" stroke="white" stroke-width="2" stroke-linecap="round" stroke-linejoin="round"/>
</svg>
