<svg width="42" height="44" viewBox="0 0 42 44" fill="none" xmlns="http://www.w3.org/2000/svg">
<g filter="url(#filter0_d_59_87)">
<path opacity="0.4" d="M16.2498 34.8333H25.7498C33.6665 34.8333 36.8332 31.6666 36.8332 23.75V14.25C36.8332 6.33329 33.6665 3.16663 25.7498 3.16663H16.2498C8.33317 3.16663 5.1665 6.33329 5.1665 14.25V23.75C5.1665 31.6666 8.33317 34.8333 16.2498 34.8333Z" stroke="white" stroke-width="2" stroke-linecap="round" stroke-linejoin="round"/>
<path d="M27.7766 21.5492C25.9874 23.3383 23.4224 23.8925 21.1582 23.18L17.0574 27.265C16.7724 27.5658 16.1866 27.7558 15.7591 27.6925L13.8591 27.4392C13.2257 27.36 12.6557 26.7583 12.5607 26.1408L12.3074 24.2408C12.2441 23.8292 12.4499 23.2433 12.7349 22.9425L16.8199 18.8575C16.1232 16.5933 16.6616 14.0283 18.4507 12.2392C21.0157 9.67418 25.1957 9.67418 27.7766 12.2392C30.3416 14.7883 30.3416 18.9683 27.7766 21.5492Z" stroke="white" stroke-width="2" stroke-miterlimit="10" stroke-linecap="round" stroke-linejoin="round"/>
<path d="M18.546 25.7767L17.2002 24.415" stroke="white" stroke-width="2" stroke-miterlimit="10" stroke-linecap="round" stroke-linejoin="round"/>
<path d="M23.2078 16.9416H23.222" stroke="white" stroke-width="2" stroke-linecap="round" stroke-linejoin="round"/>
</g>
<defs>
<filter id="filter0_d_59_87" x="-2" y="0" width="46" height="46" filterUnits="userSpaceOnUse" color-interpolation-filters="sRGB">
<feFlood flood-opacity="0" result="BackgroundImageFix"/>
<feColorMatrix in="SourceAlpha" type="matrix" values="0 0 0 0 0 0 0 0 0 0 0 0 0 0 0 0 0 0 127 0" result="hardAlpha"/>
<feOffset dy="4"/>
<feGaussianBlur stdDeviation="2"/>
<feComposite in2="hardAlpha" operator="out"/>
<feColorMatrix type="matrix" values="0 0 0 0 0 0 0 0 0 0 0 0 0 0 0 0 0 0 0.25 0"/>
<feBlend mode="normal" in2="BackgroundImageFix" result="effect1_dropShadow_59_87"/>
<feBlend mode="normal" in="SourceGraphic" in2="effect1_dropShadow_59_87" result="shape"/>
</filter>
</defs>
</svg>
