<svg width="38" height="38" viewBox="0 0 38 38" fill="none" xmlns="http://www.w3.org/2000/svg">
<path d="M15.2002 31.6667H22.8002C29.1335 31.6667 31.6668 29.1334 31.6668 22.8V15.2C31.6668 8.86671 29.1335 6.33337 22.8002 6.33337H15.2002C8.86683 6.33337 6.3335 8.86671 6.3335 15.2V22.8C6.3335 29.1334 8.86683 31.6667 15.2002 31.6667Z" stroke="white" stroke-width="2" stroke-linecap="round" stroke-linejoin="round"/>
<path opacity="0.4" d="M16.6252 26.9167H21.3752C25.3335 26.9167 26.9168 25.3334 26.9168 21.375V16.625C26.9168 12.6667 25.3335 11.0834 21.3752 11.0834H16.6252C12.6668 11.0834 11.0835 12.6667 11.0835 16.625V21.375C11.0835 25.3334 12.6668 26.9167 16.6252 26.9167Z" stroke="white" stroke-width="2" stroke-linecap="round" stroke-linejoin="round"/>
<path d="M12.6826 6.33329V3.16663" stroke="white" stroke-width="2" stroke-linecap="round" stroke-linejoin="round"/>
<path d="M19 6.33329V3.16663" stroke="white" stroke-width="2" stroke-linecap="round" stroke-linejoin="round"/>
<path d="M25.3335 6.33329V3.16663" stroke="white" stroke-width="2" stroke-linecap="round" stroke-linejoin="round"/>
<path d="M31.6665 12.6666H34.8332" stroke="white" stroke-width="2" stroke-linecap="round" stroke-linejoin="round"/>
<path d="M31.6665 19H34.8332" stroke="white" stroke-width="2" stroke-linecap="round" stroke-linejoin="round"/>
<path d="M31.6665 25.3334H34.8332" stroke="white" stroke-width="2" stroke-linecap="round" stroke-linejoin="round"/>
<path d="M25.3335 31.6666V34.8333" stroke="white" stroke-width="2" stroke-linecap="round" stroke-linejoin="round"/>
<path d="M19.0156 31.6666V34.8333" stroke="white" stroke-width="2" stroke-linecap="round" stroke-linejoin="round"/>
<path d="M12.6826 31.6666V34.8333" stroke="white" stroke-width="2" stroke-linecap="round" stroke-linejoin="round"/>
<path d="M3.1665 12.6666H6.33317" stroke="white" stroke-width="2" stroke-linecap="round" stroke-linejoin="round"/>
<path d="M3.1665 19H6.33317" stroke="white" stroke-width="2" stroke-linecap="round" stroke-linejoin="round"/>
<path d="M3.1665 25.3334H6.33317" stroke="white" stroke-width="2" stroke-linecap="round" stroke-linejoin="round"/>
</svg>
