<svg width="1067" height="475" viewBox="0 0 1067 475" fill="none" xmlns="http://www.w3.org/2000/svg">
<path d="M821.89 474.846C688.697 474.846 602.428 388.245 518.782 304.278L452.04 237.279C375.68 161.211 321.47 115.278 244.818 115.278C208.387 115.278 174.87 128.151 150.68 151.556C127.364 174.084 114.54 204.511 114.54 237.279C114.54 270.047 127.364 300.182 150.68 323.002C174.87 346.408 208.096 359.281 244.818 359.281C278.044 359.281 307.772 351.089 338.957 332.657L311.561 305.155H251.813C221.502 305.155 196.729 280.287 196.729 249.86V189.883H327.882C347.992 189.883 367.228 197.782 381.509 212.118L475.647 306.618C484.974 315.98 489.928 328.561 489.345 341.727C489.054 354.6 483.225 367.18 473.315 375.665C373.931 463.143 301.943 474.846 244.818 474.846C107.545 474.846 0 370.691 0 237.572C0 104.16 107.545 0.00537109 245.11 0.00537109C378.303 0.00537109 464.572 86.6059 548.218 170.573L616.418 239.035C692.195 314.225 745.822 359.573 821.89 359.573C858.322 359.573 891.838 346.7 916.029 323.295C939.345 300.767 952.169 270.34 952.169 237.572C952.169 204.804 939.345 174.669 916.029 151.849C891.838 128.443 858.613 115.57 821.89 115.57C771.469 115.57 728.918 134.587 674.708 181.106C664.798 189.59 652.266 194.271 639.442 194.271C624.87 194.271 611.463 188.713 601.262 178.473L556.379 133.417L572.117 118.789C648.186 47.4016 719.883 0.00537109 821.89 0.00537109C959.163 0.00537109 1067 104.16 1067 237.572C1067 370.691 959.455 474.846 821.89 474.846Z" fill="url(#paint0_linear_0_1857)"/>
<defs>
<linearGradient id="paint0_linear_0_1857" x1="104.706" y1="236.865" x2="1171.93" y2="236.865" gradientUnits="userSpaceOnUse">
<stop offset="0.00520833" stop-color="#0D1134"/>
<stop offset="0.375" stop-color="#0B113C"/>
<stop offset="0.588542" stop-color="#05092D"/>
<stop offset="0.770833" stop-color="#010734"/>
<stop offset="1" stop-color="#03094B"/>
</linearGradient>
</defs>
</svg>
