<svg width="571" height="426" viewBox="0 0 571 426" fill="none" xmlns="http://www.w3.org/2000/svg">
<path d="M64.3013 212.708C98.9152 205.617 169.902 191.365 176.937 191.095L259.808 158L296 202.577L288.559 288.355C249.773 309.292 158.334 351.708 102.861 353.869C33.521 356.571 19.6009 316.469 18.963 310.715C18.1481 303.365 22.0206 298.148 11.1967 258.974C2.53758 227.635 42.9918 215.072 64.3013 212.708Z" fill="#EFEFF5"/>
<path d="M427.406 345.897C396.766 325.658 334.143 283.936 328.774 278.964L243.6 242.326L249.688 183.038L318.058 125.607C361.917 138.759 460.224 174.859 502.579 214.044C555.522 263.025 536.346 302.663 532.595 307.351C527.805 313.34 521.133 314.319 500.362 351C483.745 380.345 444.801 359.825 427.406 345.897Z" fill="url(#paint0_linear_1713_88)"/>
<path d="M399.465 47.8248L265.254 121.767L263.261 124.099L242 148.413L249.973 197.375C268.466 213.585 306.979 247.736 313.092 254.664C320.732 263.324 445.641 228.018 461.255 202.704C473.902 182.2 501.673 151.522 516.733 140.086C536.333 121.878 565.234 76.4025 524.041 40.164C482.848 3.92558 423.826 30.1718 399.465 47.8248Z" fill="url(#paint1_linear_1713_88)"/>
<path d="M32.3069 183.269C51.3584 208.751 140.307 261.13 182.4 284.134H187.414L350.668 296L372.916 233.545C375.109 210.437 333.935 142.549 322.153 127.06C307.426 107.699 96.35 -64.4497 52.6743 26.1962C32.3069 68.4676 52.6743 41.8098 10.9992 104.264C-14.1499 141.953 8.49246 151.418 32.3069 183.269Z" fill="url(#paint2_linear_1713_88)"/>
<defs>
<linearGradient id="paint0_linear_1713_88" x1="322.098" y1="320.825" x2="465.825" y2="177.099" gradientUnits="userSpaceOnUse">
<stop stop-color="#B6E0F9"/>
<stop offset="1" stop-color="#B6E0F9" stop-opacity="0"/>
</linearGradient>
<linearGradient id="paint1_linear_1713_88" x1="475.5" y1="22" x2="414.5" y2="205" gradientUnits="userSpaceOnUse">
<stop stop-color="#8E3EFF"/>
<stop offset="1" stop-color="white"/>
</linearGradient>
<linearGradient id="paint2_linear_1713_88" x1="186.5" y1="0" x2="186.5" y2="296" gradientUnits="userSpaceOnUse">
<stop stop-color="#3CA6FF"/>
<stop offset="1" stop-color="#3CA6FF" stop-opacity="0"/>
</linearGradient>
</defs>
</svg>
