<svg width="1067" height="476" viewBox="0 0 1067 476" fill="none" xmlns="http://www.w3.org/2000/svg">
<g opacity="0.6">
<path d="M821.89 474.846C688.697 474.846 602.428 388.246 518.782 304.278L452.04 237.28C375.68 161.212 321.47 115.278 244.818 115.278C208.387 115.278 174.87 128.151 150.68 151.557C127.364 174.085 114.54 204.512 114.54 237.28C114.54 270.047 127.364 300.182 150.68 323.003C174.87 346.408 208.096 359.281 244.818 359.281C278.044 359.281 307.772 351.089 338.957 332.657L311.561 305.156H251.813C221.502 305.156 196.729 280.287 196.729 249.86V189.883H327.882C347.992 189.883 367.228 197.783 381.509 212.119L475.647 306.619C484.974 315.981 489.928 328.561 489.345 341.727C489.054 354.6 483.225 367.181 473.315 375.665C373.931 463.143 301.943 474.846 244.818 474.846C107.545 474.846 0 370.691 0 237.572C0 104.161 107.545 0.00585938 245.11 0.00585938C378.303 0.00585938 464.572 86.6064 548.218 170.574L616.418 239.035C692.195 314.225 745.822 359.574 821.89 359.574C858.322 359.574 891.838 346.701 916.029 323.295C939.345 300.767 952.169 270.34 952.169 237.572C952.169 204.804 939.345 174.67 916.029 151.849C891.838 128.444 858.613 115.571 821.89 115.571C771.469 115.571 728.918 134.588 674.708 181.106C664.798 189.591 652.266 194.272 639.442 194.272C624.87 194.272 611.463 188.713 601.262 178.473L556.379 133.418L572.117 118.789C648.186 47.4021 719.883 0.00585938 821.89 0.00585938C959.163 0.00585938 1067 104.161 1067 237.572C1067 370.691 959.455 474.846 821.89 474.846Z" fill="url(#paint0_linear_2273_214)"/>
<path d="M821.89 474.846C688.697 474.846 602.428 388.246 518.782 304.278L452.04 237.28C375.68 161.212 321.47 115.278 244.818 115.278C208.387 115.278 174.87 128.151 150.68 151.557C127.364 174.085 114.54 204.512 114.54 237.28C114.54 270.047 127.364 300.182 150.68 323.003C174.87 346.408 208.096 359.281 244.818 359.281C278.044 359.281 307.772 351.089 338.957 332.657L311.561 305.156H251.813C221.502 305.156 196.729 280.287 196.729 249.86V189.883H327.882C347.992 189.883 367.228 197.783 381.509 212.119L475.647 306.619C484.974 315.981 489.928 328.561 489.345 341.727C489.054 354.6 483.225 367.181 473.315 375.665C373.931 463.143 301.943 474.846 244.818 474.846C107.545 474.846 0 370.691 0 237.572C0 104.161 107.545 0.00585938 245.11 0.00585938C378.303 0.00585938 464.572 86.6064 548.218 170.574L616.418 239.035C692.195 314.225 745.822 359.574 821.89 359.574C858.322 359.574 891.838 346.701 916.029 323.295C939.345 300.767 952.169 270.34 952.169 237.572C952.169 204.804 939.345 174.67 916.029 151.849C891.838 128.444 858.613 115.571 821.89 115.571C771.469 115.571 728.918 134.588 674.708 181.106C664.798 189.591 652.266 194.272 639.442 194.272C624.87 194.272 611.463 188.713 601.262 178.473L556.379 133.418L572.117 118.789C648.186 47.4021 719.883 0.00585938 821.89 0.00585938C959.163 0.00585938 1067 104.161 1067 237.572C1067 370.691 959.455 474.846 821.89 474.846Z" fill="url(#paint1_linear_2273_214)"/>
<path d="M639.442 193.979C652.266 193.979 664.798 189.297 674.708 180.813C728.917 134.294 771.469 115.277 821.89 115.277C858.321 115.277 891.838 128.15 916.029 151.556C939.345 174.084 951.877 204.511 952.168 236.986C952.46 241.96 952.46 246.349 951.586 249.859C982.771 112.352 858.613 -45.6358 682.285 35.1134C679.954 36.2837 677.622 37.7465 675.291 38.9168H674.999C672.668 40.0871 670.627 41.5499 668.296 42.7202C668.004 42.7202 668.004 43.0128 667.713 43.0128C665.673 44.1831 663.341 45.6459 661.301 47.1087C661.009 47.1087 661.009 47.4013 660.718 47.4013C658.678 48.8642 656.638 50.0344 654.306 51.4973C654.015 51.7899 653.723 51.7899 653.432 52.0824C651.392 53.5453 649.351 54.7156 647.311 56.1784C647.02 56.471 646.728 56.471 646.437 56.7635C644.397 58.2264 642.357 59.3967 640.608 60.8595C640.317 61.1521 639.734 61.4446 639.442 61.7372C637.402 63.2001 635.653 64.3703 633.613 65.8332C633.322 66.1258 632.739 66.4183 632.447 66.7109C630.699 68.1737 628.659 69.344 626.91 70.8069C626.327 71.0994 626.035 71.6846 625.453 71.9771C623.704 73.44 621.955 74.6103 620.206 76.0731C619.624 76.6583 619.041 76.9508 618.458 77.536C616.709 78.9988 614.96 80.1691 613.212 81.6319C612.629 82.2171 612.046 82.8022 611.171 83.0948C609.423 84.5576 607.966 85.7279 606.217 87.1908C605.342 87.7759 604.76 88.361 603.885 88.9462C602.428 90.1164 600.971 91.5793 599.222 92.7496C598.348 93.6273 597.473 94.2124 596.599 95.0901C595.142 96.2604 593.684 97.4307 592.519 98.8935C591.353 99.7712 590.478 100.649 589.313 101.819C588.147 102.99 586.981 103.867 585.524 105.037C584.358 106.208 582.901 107.378 581.444 108.548C580.569 109.426 579.403 110.304 578.529 111.181C576.197 113.229 573.866 115.57 571.534 117.618L555.796 132.246L600.679 177.302C611.463 188.42 624.87 193.979 639.442 193.979Z" fill="url(#paint2_linear_2273_214)"/>
<path d="M448.542 279.117C423.186 288.186 367.228 308.081 328.756 322.124L339.54 332.949C308.355 351.381 278.627 359.573 245.401 359.573C208.97 359.573 175.453 346.7 151.263 323.295C129.987 302.522 117.455 275.313 115.414 245.764H0.291504C4.66326 375.079 110.46 475.138 245.11 475.138C302.234 475.138 374.222 463.435 473.607 375.957C483.225 367.473 489.054 355.185 489.637 342.019C489.928 328.853 484.973 316.273 475.939 306.911L448.542 279.117Z" fill="url(#paint3_linear_2273_214)"/>
<path d="M475.939 306.911L381.8 212.118C367.519 197.782 348.575 189.883 328.173 189.883H197.021L312.143 305.448L339.54 332.949C386.463 380.053 391.126 438.859 339.831 459.632C364.896 450.855 392.292 437.104 422.603 416.332C438.924 405.214 456.12 391.756 474.19 375.957C483.808 367.472 489.637 355.185 490.22 342.019C489.928 328.853 484.974 315.98 475.939 306.911Z" fill="url(#paint4_linear_2273_214)"/>
<path d="M955.666 437.397C885.426 475.724 809.649 432.716 749.319 372.154C688.989 311.592 616.418 238.743 616.418 238.743L548.218 170.281C464.572 86.6064 378.303 0.00585938 245.11 0.00585938C195.272 0.00585938 149.514 13.7566 111.334 37.4548C204.598 -16.9632 282.415 67.2968 336.625 121.715C391.126 176.425 452.04 237.572 452.04 237.572L518.782 304.278C602.428 387.953 688.697 474.846 821.89 474.846C871.728 474.846 917.194 461.095 955.666 437.397Z" fill="url(#paint5_linear_2273_214)"/>
</g>
<defs>
<linearGradient id="paint0_linear_2273_214" x1="104.706" y1="236.866" x2="1171.93" y2="236.866" gradientUnits="userSpaceOnUse">
<stop offset="0.00520833" stop-color="#161617"/>
<stop offset="0.375" stop-color="#161618"/>
<stop offset="0.588542" stop-color="#1D1D1F"/>
<stop offset="0.770833" stop-color="#151516"/>
<stop offset="1" stop-color="#161618"/>
</linearGradient>
<linearGradient id="paint1_linear_2273_214" x1="104.706" y1="236.866" x2="1171.93" y2="236.866" gradientUnits="userSpaceOnUse">
<stop offset="0.00520833" stop-color="#161617"/>
<stop offset="0.375" stop-color="#161618"/>
<stop offset="0.588542" stop-color="#1D1D1F"/>
<stop offset="0.770833" stop-color="#151516"/>
<stop offset="1" stop-color="#161618"/>
</linearGradient>
<linearGradient id="paint2_linear_2273_214" x1="595.107" y1="131.231" x2="995.785" y2="131.231" gradientUnits="userSpaceOnUse">
<stop offset="0.00520833" stop-color="#161617"/>
<stop offset="0.375" stop-color="#161618"/>
<stop offset="0.588542" stop-color="#1D1D1F"/>
<stop offset="0.770833" stop-color="#151516"/>
<stop offset="1" stop-color="#161618"/>
</linearGradient>
<linearGradient id="paint3_linear_2273_214" x1="48.3129" y1="360.18" x2="537.772" y2="360.18" gradientUnits="userSpaceOnUse">
<stop offset="0.00520833" stop-color="#161617"/>
<stop offset="0.375" stop-color="#161618"/>
<stop offset="0.588542" stop-color="#1D1D1F"/>
<stop offset="0.770833" stop-color="#151516"/>
<stop offset="1" stop-color="#161618"/>
</linearGradient>
<linearGradient id="paint4_linear_2273_214" x1="225.793" y1="324.439" x2="519.053" y2="324.439" gradientUnits="userSpaceOnUse">
<stop offset="0.00520833" stop-color="#161617"/>
<stop offset="0.375" stop-color="#161618"/>
<stop offset="0.588542" stop-color="#1D1D1F"/>
<stop offset="0.770833" stop-color="#151516"/>
<stop offset="1" stop-color="#161618"/>
</linearGradient>
<linearGradient id="paint5_linear_2273_214" x1="194.19" y1="236.866" x2="1038.7" y2="236.866" gradientUnits="userSpaceOnUse">
<stop offset="0.00520833" stop-color="#161617"/>
<stop offset="0.375" stop-color="#161618"/>
<stop offset="0.588542" stop-color="#1D1D1F"/>
<stop offset="0.770833" stop-color="#151516"/>
<stop offset="1" stop-color="#161618"/>
</linearGradient>
</defs>
</svg>
