<svg width="1261" height="1123" viewBox="0 0 1261 1123" fill="none" xmlns="http://www.w3.org/2000/svg">
<path d="M646.739 237.791C478.79 190.258 429.248 311.684 429 370.363C429 465.264 450.551 542.779 604.38 624.641C760.438 707.689 1059.92 604.955 1126.8 501.486C1195.17 395.718 1107.92 335.292 1059.92 332.692C993.04 329.07 997.499 341.842 909.065 329.07C793.136 312.328 766.383 271.653 646.739 237.791Z" fill="#AEDBF7"/>
<path opacity="0.7" d="M1697.56 207.245C1736.93 198.164 1773.72 230.946 1768.5 270.448C1767.62 277.109 1765.54 283.55 1762.36 289.469L1558.61 668.675C1528.86 724.047 1479.79 766.852 1420.31 789.311L903.114 984.617C825.169 1014.05 736.253 989.298 684.593 923.783L679.479 917.298C674.222 910.631 669.728 903.416 666.081 895.788C639.368 839.907 662.674 773.765 718.553 746.876L1130.53 548.626C1161.31 533.817 1188.82 513.261 1211.55 488.091L1358.89 324.948C1388.29 292.398 1427.21 269.606 1470.43 259.637L1697.56 207.245Z" fill="url(#paint0_linear_3102_178)"/>
<path d="M571.948 233.123C395.647 60.1686 758.884 48.4144 606.649 -43.3802L0 -246H1482L1370.06 -64.0899C1324.4 15.2768 1356.56 716.991 1009.64 701.755C811.288 693.044 821.431 477.869 571.948 233.123Z" fill="url(#paint1_linear_3102_178)"/>
<path d="M514.962 280.606C308.612 307.879 318.519 472.304 348.914 540.174C398.504 649.743 462.301 728.696 671.329 747.965C883.387 767.512 1153.37 502.409 1171.59 350.233C1190.21 194.676 1064.34 167.589 1011.1 188.067C936.928 216.6 948.42 229.165 846.172 257.676C712.131 295.052 661.963 261.177 514.962 280.606Z" fill="url(#paint2_linear_3102_178)"/>
<defs>
<linearGradient id="paint0_linear_3102_178" x1="974" y1="912.5" x2="929.083" y2="687.381" gradientUnits="userSpaceOnUse">
<stop stop-color="#FCB928"/>
<stop offset="1" stop-color="#FCB928" stop-opacity="0"/>
</linearGradient>
<linearGradient id="paint1_linear_3102_178" x1="1164.5" y1="30" x2="681.193" y2="435.745" gradientUnits="userSpaceOnUse">
<stop stop-color="#2E20FF"/>
<stop offset="0.495697" stop-color="#963BE9"/>
<stop offset="1" stop-color="#FF56D2"/>
</linearGradient>
<linearGradient id="paint2_linear_3102_178" x1="489" y1="407.5" x2="1121.5" y2="492" gradientUnits="userSpaceOnUse">
<stop stop-color="#AADCF9"/>
<stop offset="1" stop-color="#AADCF9" stop-opacity="0"/>
</linearGradient>
</defs>
</svg>
