<svg width="1131" height="504" viewBox="0 0 1131 504" fill="none" xmlns="http://www.w3.org/2000/svg">
<path d="M871.132 503.673C730.034 503.673 638.645 411.814 550.034 322.748L479.331 251.681C398.439 170.994 341.012 122.272 259.811 122.272C221.218 122.272 185.712 135.927 160.086 160.753C135.386 184.649 121.801 216.924 121.801 251.681C121.801 286.439 135.386 318.403 160.086 342.609C185.712 367.436 220.909 381.091 259.811 381.091C295.009 381.091 326.501 372.401 359.537 352.85L330.515 323.679H267.221C235.111 323.679 208.868 297.3 208.868 265.026V201.407H347.804C369.108 201.407 389.485 209.786 404.614 224.993L504.34 325.231C514.22 335.161 519.468 348.506 518.851 362.471C518.542 376.125 512.367 389.47 501.87 398.469C396.587 491.259 320.326 503.673 259.811 503.673C114.391 503.673 0.462891 393.194 0.462891 251.992C0.462891 110.479 114.391 0 260.12 0C401.218 0 492.607 91.859 581.218 180.925L653.465 253.543C733.739 333.299 790.549 381.401 871.132 381.401C909.726 381.401 945.232 367.746 970.858 342.92C995.558 319.024 1009.14 286.749 1009.14 251.992C1009.14 217.234 995.558 185.27 970.858 161.064C945.232 136.237 910.035 122.582 871.132 122.582C817.719 122.582 772.642 142.754 715.215 192.097C704.717 201.097 691.441 206.062 677.856 206.062C662.419 206.062 648.216 200.166 637.41 189.304L589.863 141.513L606.535 125.996C687.119 50.2742 763.071 0 871.132 0C1016.55 0 1130.79 110.479 1130.79 251.992C1130.79 393.194 1016.86 503.673 871.132 503.673Z" fill="url(#paint0_linear_2205_249)"/>
<path d="M871.132 503.673C730.034 503.673 638.645 411.814 550.034 322.748L479.331 251.681C398.439 170.994 341.012 122.272 259.811 122.272C221.218 122.272 185.712 135.927 160.086 160.753C135.386 184.649 121.801 216.924 121.801 251.681C121.801 286.439 135.386 318.403 160.086 342.609C185.712 367.436 220.909 381.091 259.811 381.091C295.009 381.091 326.501 372.401 359.537 352.85L330.515 323.679H267.221C235.111 323.679 208.868 297.3 208.868 265.026V201.407H347.804C369.108 201.407 389.485 209.786 404.614 224.993L504.34 325.231C514.22 335.161 519.468 348.506 518.851 362.471C518.542 376.125 512.367 389.47 501.87 398.469C396.587 491.259 320.326 503.673 259.811 503.673C114.391 503.673 0.462891 393.194 0.462891 251.992C0.462891 110.479 114.391 0 260.12 0C401.218 0 492.607 91.859 581.218 180.925L653.465 253.543C733.739 333.299 790.549 381.401 871.132 381.401C909.726 381.401 945.232 367.746 970.858 342.92C995.558 319.024 1009.14 286.749 1009.14 251.992C1009.14 217.234 995.558 185.27 970.858 161.064C945.232 136.237 910.035 122.582 871.132 122.582C817.719 122.582 772.642 142.754 715.215 192.097C704.717 201.097 691.441 206.062 677.856 206.062C662.419 206.062 648.216 200.166 637.41 189.304L589.863 141.513L606.535 125.996C687.119 50.2742 763.071 0 871.132 0C1016.55 0 1130.79 110.479 1130.79 251.992C1130.79 393.194 1016.86 503.673 871.132 503.673Z" fill="url(#paint1_linear_2205_249)"/>
<path d="M677.856 205.752C691.441 205.752 704.717 200.787 715.214 191.787C772.641 142.444 817.719 122.272 871.132 122.272C909.726 122.272 945.232 135.927 970.858 160.753C995.557 184.649 1008.83 216.924 1009.14 251.371C1009.45 256.647 1009.45 261.302 1008.52 265.026C1041.56 119.169 910.034 -48.4121 723.242 37.2403C720.772 38.4816 718.302 40.0333 715.832 41.2746H715.523C713.053 42.5159 710.892 44.0676 708.422 45.3089C708.113 45.3089 708.113 45.6193 707.804 45.6193C705.643 46.8606 703.173 48.4123 701.012 49.964C700.703 49.964 700.703 50.2743 700.394 50.2743C698.233 51.826 696.072 53.0673 693.602 54.619C693.293 54.9293 692.984 54.9293 692.676 55.2396C690.514 56.7913 688.353 58.0327 686.192 59.5843C685.883 59.8947 685.575 59.8947 685.266 60.205C683.105 61.7567 680.943 62.998 679.091 64.5497C678.782 64.86 678.165 65.1704 677.856 65.4807C675.695 67.0324 673.842 68.2737 671.681 69.8254C671.372 70.1357 670.755 70.446 670.446 70.7564C668.593 72.308 666.432 73.5494 664.58 75.1011C663.962 75.4114 663.653 76.0321 663.036 76.3424C661.183 77.8941 659.331 79.1354 657.478 80.6871C656.861 81.3077 656.243 81.6181 655.626 82.2388C653.773 83.7904 651.921 85.0318 650.068 86.5834C649.451 87.2041 648.833 87.8248 647.907 88.1351C646.055 89.6868 644.511 90.9281 642.659 92.4798C641.732 93.1005 641.115 93.7211 640.189 94.3418C638.645 95.5831 637.101 97.1348 635.249 98.3761C634.322 99.3072 633.396 99.9278 632.47 100.859C630.926 102.1 629.382 103.341 628.147 104.893C626.912 105.824 625.986 106.755 624.751 107.997C623.516 109.238 622.281 110.169 620.737 111.41C619.502 112.652 617.959 113.893 616.415 115.134C615.489 116.065 614.254 116.996 613.327 117.927C610.857 120.1 608.388 122.582 605.918 124.755L589.245 140.271L636.792 188.063C648.216 199.856 662.418 205.752 677.856 205.752Z" fill="url(#paint2_linear_2205_249)"/>
<path d="M475.626 296.059C448.765 305.679 389.485 326.782 348.731 341.678L360.154 353.16C327.118 372.711 295.626 381.401 260.429 381.401C221.835 381.401 186.329 367.746 160.703 342.919C138.164 320.886 124.888 292.024 122.727 260.681H0.771484C5.4027 397.849 117.478 503.983 260.12 503.983C320.634 503.983 396.895 491.57 502.178 398.78C512.367 389.78 518.542 376.746 519.159 362.781C519.468 348.816 514.219 335.471 504.648 325.541L475.626 296.059Z" fill="url(#paint3_linear_2205_249)"/>
<path d="M504.649 325.541L404.923 224.993C389.794 209.786 369.726 201.407 348.113 201.407H209.177L331.132 323.989L360.155 353.161C409.863 403.125 414.803 465.502 360.463 487.536C387.016 478.226 416.038 463.64 448.148 441.606C465.438 429.813 483.654 415.538 502.796 398.78C512.985 389.78 519.16 376.746 519.777 362.781C519.468 348.816 514.22 335.161 504.649 325.541Z" fill="url(#paint4_linear_2205_249)"/>
<path d="M1012.85 463.95C938.439 504.604 858.165 458.985 794.254 394.745C730.343 330.506 653.465 253.233 653.465 253.233L581.218 180.615C492.607 91.859 401.217 0 260.12 0C207.324 0 158.85 14.5857 118.404 39.7228C217.204 -17.9994 299.639 71.3769 357.067 129.099C414.802 187.132 479.331 251.992 479.331 251.992L550.034 322.748C638.645 411.504 730.034 503.673 871.132 503.673C923.928 503.673 972.093 489.087 1012.85 463.95Z" fill="url(#paint5_linear_2205_249)"/>
<defs>
<linearGradient id="paint0_linear_2205_249" x1="0.462891" y1="251.857" x2="1130.78" y2="251.857" gradientUnits="userSpaceOnUse">
<stop stop-color="#232323"/>
<stop offset="0.25" stop-color="#232323"/>
<stop offset="0.5" stop-color="#232323"/>
<stop offset="0.751" stop-color="#232323"/>
<stop offset="1" stop-color="#28282B"/>
</linearGradient>
<linearGradient id="paint1_linear_2205_249" x1="0.462891" y1="251.857" x2="1130.78" y2="251.857" gradientUnits="userSpaceOnUse">
<stop stop-color="#232323"/>
<stop offset="0.25" stop-color="#232323"/>
<stop offset="0.5" stop-color="#232323"/>
<stop offset="0.751" stop-color="#232323"/>
<stop offset="1" stop-color="#28282B"/>
</linearGradient>
<linearGradient id="paint2_linear_2205_249" x1="484.95" y1="139.747" x2="985.382" y2="139.747" gradientUnits="userSpaceOnUse">
<stop stop-color="#28282A"/>
<stop offset="0.2" stop-color="#272729"/>
<stop offset="0.4" stop-color="#1E1E20"/>
<stop offset="0.6" stop-color="#373737"/>
<stop offset="0.8" stop-color="#19191D"/>
<stop offset="1" stop-color="#1B1B20"/>
</linearGradient>
<linearGradient id="paint3_linear_2205_249" x1="51.643" y1="382.045" x2="570.152" y2="382.045" gradientUnits="userSpaceOnUse">
<stop offset="0.1404" stop-color="#0F0F0F" stop-opacity="0"/>
<stop offset="0.4275" stop-color="#28282A"/>
<stop offset="0.5457" stop-color="#232323"/>
<stop offset="0.6446" stop-color="#201F20"/>
<stop offset="0.7193" stop-color="#17161D"/>
<stop offset="1"/>
</linearGradient>
<linearGradient id="paint4_linear_2205_249" x1="465.684" y1="429.101" x2="133.956" y2="141.45" gradientUnits="userSpaceOnUse">
<stop stop-color="#232323"/>
<stop offset="0.3213" stop-color="#272729"/>
<stop offset="0.8151" stop-color="#262526"/>
<stop offset="0.9677" stop-color="#FF793E"/>
<stop offset="1" stop-color="#232323"/>
</linearGradient>
<linearGradient id="paint5_linear_2205_249" x1="944.342" y1="526.183" x2="219.587" y2="6.58297" gradientUnits="userSpaceOnUse">
<stop offset="0.00301461"/>
<stop offset="0.2476" stop-color="#232323"/>
<stop offset="0.3818" stop-color="#232323"/>
<stop offset="0.4975" stop-color="#28282A"/>
<stop offset="0.822917" stop-color="#2D2833"/>
<stop offset="0.9999" stop-color="#292658"/>
<stop offset="1" stop-color="#272729"/>
</linearGradient>
</defs>
</svg>
