<svg width="877" height="688" viewBox="0 0 877 688" fill="none" xmlns="http://www.w3.org/2000/svg">
<path d="M522.085 688C329.223 688 204.307 562.524 83.1882 440.863L-13.4534 343.788C-124.022 233.572 -202.517 167.019 -313.507 167.019C-366.259 167.019 -414.79 185.671 -449.818 219.583C-483.579 252.224 -502.148 296.311 -502.148 343.788C-502.148 391.266 -483.579 434.928 -449.818 467.993C-414.79 501.905 -366.681 520.557 -313.507 520.557C-265.397 520.557 -222.351 508.688 -177.196 481.981L-216.865 442.134H-303.378C-347.268 442.134 -383.139 406.102 -383.139 362.016V275.115H-193.232C-164.113 275.115 -136.26 286.561 -115.581 307.332L20.7299 444.254C34.2344 457.819 41.4086 476.047 40.5646 495.123C40.1426 513.774 31.7023 532.002 17.3537 544.296C-126.554 671.044 -230.792 688 -313.507 688C-512.276 688 -668 537.089 -668 344.212C-668 150.911 -512.276 0 -313.085 0C-120.223 0 4.6933 125.476 125.812 247.137L224.564 346.331C334.288 455.275 411.939 520.981 522.085 520.981C574.837 520.981 623.369 502.329 658.396 468.417C692.157 435.776 710.726 391.689 710.726 344.212C710.726 296.734 692.157 253.072 658.396 220.007C623.369 186.095 575.259 167.443 522.085 167.443C449.076 167.443 387.462 194.997 308.967 262.398C294.618 274.691 276.471 281.474 257.903 281.474C236.802 281.474 217.389 273.42 202.619 258.583L137.628 193.301L160.417 172.106C270.563 68.6728 374.379 0 522.085 0C720.854 0 877 150.911 877 344.212C877 537.089 721.276 688 522.085 688Z" fill="url(#paint0_linear_2205_240)"/>
<path d="M522.085 688C329.223 688 204.307 562.524 83.1882 440.863L-13.4534 343.788C-124.022 233.572 -202.517 167.019 -313.507 167.019C-366.259 167.019 -414.79 185.671 -449.818 219.583C-483.579 252.224 -502.148 296.311 -502.148 343.788C-502.148 391.266 -483.579 434.928 -449.818 467.993C-414.79 501.905 -366.681 520.557 -313.507 520.557C-265.397 520.557 -222.351 508.688 -177.196 481.981L-216.865 442.134H-303.378C-347.268 442.134 -383.139 406.102 -383.139 362.016V275.115H-193.232C-164.113 275.115 -136.26 286.561 -115.581 307.332L20.7299 444.254C34.2344 457.819 41.4086 476.047 40.5646 495.123C40.1426 513.774 31.7023 532.002 17.3537 544.296C-126.554 671.044 -230.792 688 -313.507 688C-512.276 688 -668 537.089 -668 344.212C-668 150.911 -512.276 0 -313.085 0C-120.223 0 4.6933 125.476 125.812 247.137L224.564 346.331C334.288 455.275 411.939 520.981 522.085 520.981C574.837 520.981 623.369 502.329 658.396 468.417C692.157 435.776 710.726 391.689 710.726 344.212C710.726 296.734 692.157 253.072 658.396 220.007C623.369 186.095 575.259 167.443 522.085 167.443C449.076 167.443 387.462 194.997 308.967 262.398C294.618 274.691 276.471 281.474 257.903 281.474C236.802 281.474 217.389 273.42 202.619 258.583L137.628 193.301L160.417 172.106C270.563 68.6728 374.379 0 522.085 0C720.854 0 877 150.911 877 344.212C877 537.089 721.276 688 522.085 688Z" fill="url(#paint1_linear_2205_240)"/>
<path d="M257.903 281.05C276.471 281.05 294.618 274.267 308.967 261.974C387.462 194.573 449.076 167.019 522.085 167.019C574.837 167.019 623.368 185.671 658.396 219.583C692.157 252.224 710.304 296.311 710.726 343.364C711.148 350.571 711.148 356.929 709.882 362.016C755.037 162.78 575.259 -66.1294 319.939 50.8688C316.563 52.5644 313.187 54.6839 309.811 56.3795H309.389C306.013 58.0752 303.058 60.1947 299.682 61.8903C299.26 61.8903 299.26 62.3142 298.838 62.3142C295.884 64.0099 292.508 66.1294 289.554 68.2489C289.132 68.2489 289.132 68.6728 288.71 68.6728C285.756 70.7924 282.802 72.488 279.426 74.6075C279.004 75.0314 278.582 75.0314 278.159 75.4553C275.205 77.5749 272.251 79.2705 269.297 81.39C268.875 81.8139 268.453 81.8139 268.031 82.2378C265.077 84.3574 262.123 86.053 259.591 88.1725C259.169 88.5964 258.325 89.0203 257.903 89.4442C254.949 91.5638 252.417 93.2594 249.462 95.3789C249.04 95.8028 248.196 96.2267 247.774 96.6506C245.242 98.7702 242.288 100.466 239.756 102.585C238.912 103.009 238.49 103.857 237.646 104.281C235.114 106.401 232.582 108.096 230.05 110.216C229.206 111.063 228.362 111.487 227.518 112.335C224.985 114.455 222.453 116.15 219.921 118.27C219.077 119.118 218.233 119.966 216.967 120.389C214.435 122.509 212.325 124.205 209.793 126.324C208.527 127.172 207.683 128.02 206.417 128.868C204.307 130.563 202.197 132.683 199.665 134.378C198.399 135.65 197.132 136.498 195.866 137.77C193.756 139.465 191.646 141.161 189.958 143.28C188.27 144.552 187.004 145.824 185.316 147.519C183.628 149.215 181.94 150.487 179.83 152.182C178.142 153.878 176.032 155.574 173.922 157.269C172.656 158.541 170.967 159.813 169.701 161.084C166.325 164.052 162.949 167.443 159.573 170.41L136.784 191.606L201.775 256.887C217.389 272.996 236.802 281.05 257.903 281.05Z" fill="url(#paint2_linear_2205_240)"/>
<path d="M-18.5179 404.407C-55.2332 417.548 -136.26 446.373 -191.966 466.721L-176.352 482.405C-221.507 509.111 -264.553 520.981 -312.663 520.981C-365.415 520.981 -413.947 502.329 -448.974 468.416C-479.781 438.319 -497.928 398.896 -500.882 356.081H-667.578C-661.248 543.448 -508.056 688.424 -313.085 688.424C-230.37 688.424 -126.132 671.468 17.7755 544.72C31.702 532.426 40.1423 514.622 40.9864 495.546C41.4084 476.471 34.2341 458.243 21.1517 444.678L-18.5179 404.407Z" fill="url(#paint3_linear_2205_240)"/>
<path d="M21.1514 444.678L-115.16 307.332C-135.838 286.561 -163.27 275.115 -192.811 275.115H-382.718L-216.022 442.558L-176.352 482.405C-108.407 550.654 -101.655 635.859 -175.93 665.957C-139.637 653.24 -99.9671 633.316 -56.0775 603.219C-32.4446 587.11 -7.54568 567.611 18.6193 544.72C32.5458 532.426 40.9861 514.622 41.8302 495.546C41.4081 476.471 34.2339 457.819 21.1514 444.678Z" fill="url(#paint4_linear_2205_240)"/>
<path d="M715.79 633.74C614.084 689.272 504.36 626.957 417.003 539.209C329.645 451.46 224.563 345.908 224.563 345.908L125.812 246.713C4.69321 125.476 -120.224 0 -313.085 0C-385.249 0 -451.506 19.9236 -506.79 54.26C-371.745 -24.5866 -259.067 97.4984 -180.572 176.345C-101.655 255.616 -13.4535 344.212 -13.4535 344.212L83.1882 440.863C204.307 562.1 329.223 688 522.085 688C594.249 688 660.084 668.076 715.79 633.74Z" fill="url(#paint5_linear_2205_240)"/>
<defs>
<linearGradient id="paint0_linear_2205_240" x1="-668" y1="344.028" x2="876.987" y2="344.028" gradientUnits="userSpaceOnUse">
<stop stop-color="#232323"/>
<stop offset="0.25" stop-color="#232323"/>
<stop offset="0.5" stop-color="#232323"/>
<stop offset="0.751" stop-color="#232323"/>
<stop offset="1" stop-color="#28282B"/>
</linearGradient>
<linearGradient id="paint1_linear_2205_240" x1="-668" y1="344.028" x2="876.987" y2="344.028" gradientUnits="userSpaceOnUse">
<stop stop-color="#232323"/>
<stop offset="0.25" stop-color="#232323"/>
<stop offset="0.5" stop-color="#232323"/>
<stop offset="0.751" stop-color="#232323"/>
<stop offset="1" stop-color="#28282B"/>
</linearGradient>
<linearGradient id="paint2_linear_2205_240" x1="-5.77319" y1="190.89" x2="678.249" y2="190.89" gradientUnits="userSpaceOnUse">
<stop stop-color="#28282A"/>
<stop offset="0.2" stop-color="#272729"/>
<stop offset="0.4" stop-color="#1E1E20"/>
<stop offset="0.6" stop-color="#373737"/>
<stop offset="0.8" stop-color="#19191D"/>
<stop offset="1" stop-color="#1B1B20"/>
</linearGradient>
<linearGradient id="paint3_linear_2205_240" x1="-598.044" y1="521.86" x2="110.686" y2="521.86" gradientUnits="userSpaceOnUse">
<stop offset="0.1404" stop-color="#0F0F0F" stop-opacity="0"/>
<stop offset="0.4275" stop-color="#28282A"/>
<stop offset="0.5457" stop-color="#232323"/>
<stop offset="0.6446" stop-color="#201F20"/>
<stop offset="0.7193" stop-color="#17161D"/>
<stop offset="1"/>
</linearGradient>
<linearGradient id="paint4_linear_2205_240" x1="-32.1074" y1="586.138" x2="-485.279" y2="192.922" gradientUnits="userSpaceOnUse">
<stop stop-color="#232323"/>
<stop offset="0.3213" stop-color="#272729"/>
<stop offset="0.8151" stop-color="#262526"/>
<stop offset="0.9677" stop-color="#FF793E"/>
<stop offset="1" stop-color="#232323"/>
</linearGradient>
<linearGradient id="paint5_linear_2205_240" x1="622.153" y1="718.748" x2="-368.046" y2="8.37737" gradientUnits="userSpaceOnUse">
<stop offset="0.00301461"/>
<stop offset="0.2476" stop-color="#232323"/>
<stop offset="0.3818" stop-color="#232323"/>
<stop offset="0.4975" stop-color="#28282A"/>
<stop offset="0.822917" stop-color="#2D2833"/>
<stop offset="0.9999" stop-color="#292658"/>
<stop offset="1" stop-color="#272729"/>
</linearGradient>
</defs>
</svg>
