<svg width="20" height="23" viewBox="0 0 20 23" fill="none" xmlns="http://www.w3.org/2000/svg">
<path d="M10 11.75C13.0078 11.75 15.5 9.30078 15.5 6.25C15.5 3.24219 13.0078 0.75 10 0.75C6.94922 0.75 4.5 3.24219 4.5 6.25C4.5 9.30078 6.94922 11.75 10 11.75ZM13.8242 13.125H13.0938C12.1484 13.5977 11.1172 13.8125 10 13.8125C8.88281 13.8125 7.80859 13.5977 6.86328 13.125H6.13281C2.95312 13.125 0.375 15.7461 0.375 18.9258V20.6875C0.375 21.8477 1.27734 22.75 2.4375 22.75H17.5625C18.6797 22.75 19.625 21.8477 19.625 20.6875V18.9258C19.625 15.7461 17.0039 13.125 13.8242 13.125Z" fill="white"/>
</svg>
