<svg width="26" height="25" viewBox="0 0 26 25" fill="none" xmlns="http://www.w3.org/2000/svg">
<path d="M16.5781 6.31641L3.81641 19.0781L3 23.7188C2.87109 24.3203 3.42969 24.8789 4.03125 24.75L8.67188 23.9336L21.4336 11.1719L16.5781 6.31641ZM24.3555 8.25C25.1719 7.43359 25.1719 6.14453 24.3555 5.32812L22.4219 3.39453C21.6055 2.57812 20.3164 2.57812 19.5 3.39453L17.5234 5.37109L22.3789 10.2266L24.3555 8.25ZM22.5938 19.5938C22.3359 19.5938 22.0781 19.4219 21.9922 19.1641C21.2188 17.1016 19.8867 16.3711 18.4258 16.1133L14.043 20.4961C14.4297 23.2031 16.5352 24.75 19.5 24.75C23.3672 24.75 25 21.6562 25 18.1328C24.5703 18.3906 23.0664 19.5938 22.5938 19.5938ZM8.15625 12.8047L12.2812 8.67969L9.27344 4.21094C6.60938 0.386719 0.722656 5.02734 3.90234 8.46484L8.15625 12.8047Z" fill="white"/>
</svg>
