<svg width="28" height="20" viewBox="0 0 28 20" fill="none" xmlns="http://www.w3.org/2000/svg">
<path d="M26.4609 13.4453C26.5898 12.8438 26.5898 12.1992 26.4609 11.5977L27.5781 10.9531C27.707 10.9102 27.75 10.7383 27.707 10.6094C27.4062 9.66406 26.9336 8.84766 26.2891 8.11719C26.2031 8.03125 26.0312 7.98828 25.9023 8.07422L24.7852 8.71875C24.3125 8.33203 23.7969 7.98828 23.1953 7.81641V6.52734C23.1953 6.35547 23.1094 6.22656 22.9805 6.22656C21.9922 6.01172 21.0469 6.01172 20.1016 6.22656C19.9727 6.22656 19.8867 6.35547 19.8867 6.52734V7.81641C19.2852 7.98828 18.7695 8.33203 18.2969 8.71875L17.1797 8.07422C17.0508 7.98828 16.8789 8.03125 16.793 8.11719C16.1484 8.84766 15.6328 9.66406 15.375 10.6094C15.332 10.7383 15.375 10.9102 15.5039 10.9531L16.6211 11.5977C16.4922 12.1992 16.4922 12.8438 16.6211 13.4453L15.5039 14.0898C15.375 14.1328 15.332 14.3047 15.375 14.4336C15.6328 15.3789 16.1484 16.1953 16.793 16.9258C16.8789 17.0117 17.0508 17.0547 17.1797 16.9688L18.2969 16.3242C18.7695 16.7109 19.2852 17.0547 19.8867 17.2266V18.5156C19.8867 18.6875 19.9727 18.8164 20.1016 18.8164C21.0898 19.0312 22.0352 19.0312 22.9805 18.8164C23.1094 18.8164 23.1953 18.6875 23.1953 18.5156V17.2266C23.7969 17.0547 24.3125 16.7109 24.7852 16.3242L25.9023 16.9688C26.0312 17.0547 26.2031 17.0117 26.2891 16.9258C26.9336 16.1953 27.4062 15.3789 27.707 14.4336C27.75 14.3047 27.707 14.1328 27.5781 14.0898L26.4609 13.4453ZM21.5625 14.6055C20.4023 14.6055 19.457 13.6602 19.457 12.5C19.457 11.3828 20.4023 10.4375 21.5625 10.4375C22.6797 10.4375 23.625 11.3828 23.625 12.5C23.625 13.6602 22.6797 14.6055 21.5625 14.6055ZM4.375 8.375C5.87891 8.375 7.125 7.17188 7.125 5.625C7.125 4.12109 5.87891 2.875 4.375 2.875C2.82812 2.875 1.625 4.12109 1.625 5.625C1.625 7.17188 2.82812 8.375 4.375 8.375ZM14 9.75C14.043 9.75 14.1289 9.75 14.2148 9.75C14.5586 8.80469 15.1172 7.94531 15.7617 7.21484C16.1055 6.87109 16.5352 6.65625 17.0078 6.65625C17.3086 6.65625 17.6094 6.74219 17.8672 6.87109L18.2109 7.08594C18.2539 7.04297 18.2539 7.04297 18.2969 7.04297C18.5977 6.39844 18.7695 5.71094 18.7695 4.98047C18.7695 2.31641 16.6211 0.167969 13.957 0.167969C11.3359 0.167969 9.1875 2.31641 9.1875 4.9375C9.1875 7.60156 11.3359 9.75 14 9.75ZM18.5117 18.1289C18.3828 18.0859 18.2969 18 18.2109 17.957C17.8672 18.1719 17.5664 18.3867 17.0078 18.3867C16.5781 18.3867 16.1055 18.1719 15.8047 17.8281C14.9883 16.9688 14.3867 15.9375 14.043 14.8633C13.6133 13.3594 15.1172 12.7148 15.1602 12.6719C15.1602 12.5859 15.1602 12.457 15.1602 12.3711L14.8164 12.1562C14.6445 12.0703 14.5156 11.9414 14.3867 11.8125C14.2578 11.8125 14.1289 11.8125 14 11.8125C12.9258 11.8125 11.9375 11.5547 11.0352 11.125H10.6914C7.94141 11.125 5.75 13.3594 5.75 16.1094V17.3125C5.75 18.4727 6.65234 19.375 7.8125 19.375H18.7695C18.5977 19.1172 18.5117 18.8594 18.5117 18.5156V18.1289ZM7.68359 10.5664C7.16797 10.0938 6.48047 9.75 5.75 9.75H3C1.45312 9.75 0.25 10.9961 0.25 12.5V13.875C0.25 14.6484 0.851562 15.25 1.625 15.25H4.41797C4.71875 13.2305 5.92188 11.5117 7.68359 10.5664Z" fill="white"/>
</svg>
