<svg width="22" height="23" viewBox="0 0 22 23" fill="none" xmlns="http://www.w3.org/2000/svg">
<path d="M9.28125 0.75C8.67969 0.75 8.25 1.22266 8.25 1.78125V9H4.46875C3.69531 9 3.30859 9.94531 3.86719 10.5039L10.3984 17.0352C10.6992 17.3359 11.2578 17.3359 11.5586 17.0352L18.0898 10.5039C18.6484 9.94531 18.2617 9 17.4883 9H13.75V1.78125C13.75 1.22266 13.2773 0.75 12.7188 0.75H9.28125ZM22 16.9062C22 16.3477 21.5273 15.875 20.9688 15.875H14.6523L12.5469 17.9805C11.6875 18.8828 10.2695 18.8828 9.41016 17.9805L7.30469 15.875H1.03125C0.429688 15.875 0 16.3477 0 16.9062V21.7188C0 22.3203 0.429688 22.75 1.03125 22.75H20.9688C21.5273 22.75 22 22.3203 22 21.7188V16.9062ZM16.6719 20.6875C16.6719 21.1602 16.2852 21.5469 15.8125 21.5469C15.3398 21.5469 14.9531 21.1602 14.9531 20.6875C14.9531 20.2148 15.3398 19.8281 15.8125 19.8281C16.2852 19.8281 16.6719 20.2148 16.6719 20.6875ZM19.4219 20.6875C19.4219 21.1602 19.0352 21.5469 18.5625 21.5469C18.0898 21.5469 17.7031 21.1602 17.7031 20.6875C17.7031 20.2148 18.0898 19.8281 18.5625 19.8281C19.0352 19.8281 19.4219 20.2148 19.4219 20.6875Z" fill="white"/>
</svg>
