<svg width="82" height="59" viewBox="0 0 82 59" fill="none" xmlns="http://www.w3.org/2000/svg">
<path d="M80.4041 12.8716C79.5112 9.55367 76.8953 6.93833 73.578 6.04489C67.5171 4.38623 43.2736 4.38623 43.2736 4.38623C43.2736 4.38623 19.0306 4.38623 12.9698 5.98166C9.71626 6.87452 7.03652 9.55426 6.14367 12.8716C4.54883 18.9319 4.54883 31.5003 4.54883 31.5003C4.54883 31.5003 4.54883 44.132 6.14367 50.1291C7.03712 53.4464 9.65245 56.0624 12.9704 56.9558C19.0945 58.6145 43.2742 58.6145 43.2742 58.6145C43.2742 58.6145 67.5171 58.6145 73.578 57.019C76.8959 56.1262 79.5112 53.5102 80.4047 50.1929C81.9995 44.132 81.9995 31.5642 81.9995 31.5642C81.9995 31.5642 82.0633 18.9319 80.4041 12.8716Z" fill="#D3E1F1"/>
<path d="M76.4041 8.87158C75.5112 5.55367 72.8953 2.93833 69.578 2.04489C63.5171 0.38623 39.2736 0.38623 39.2736 0.38623C39.2736 0.38623 15.0306 0.38623 8.96977 1.98166C5.71626 2.87452 3.03652 5.55426 2.14367 8.87158C0.548828 14.9319 0.548828 27.5003 0.548828 27.5003C0.548828 27.5003 0.548828 40.132 2.14367 46.1291C3.03711 49.4464 5.65245 52.0624 8.97036 52.9558C15.0945 54.6145 39.2742 54.6145 39.2742 54.6145C39.2742 54.6145 63.5171 54.6145 69.578 53.019C72.8959 52.1262 75.5112 49.5102 76.4046 46.1929C77.9995 40.132 77.9995 27.5642 77.9995 27.5642C77.9995 27.5642 78.0633 14.9319 76.4041 8.87158Z" fill="#E2ECF8"/>
<path d="M31.5547 39.1121L51.7145 27.5009L31.5547 15.8896V39.1121Z" fill="white"/>
</svg>
