<svg width="75" height="72" viewBox="0 0 75 72" fill="none" xmlns="http://www.w3.org/2000/svg">
<path d="M74.1837 71.967V71.9644H74.2013V46.6833C74.2013 34.3159 71.4821 24.7886 56.7157 24.7886C49.6167 24.7886 44.8533 28.6031 42.9085 32.2187H42.7034V25.9432H28.7026V71.9644H43.2816V49.1761C43.2816 43.1764 44.4432 37.374 52.0314 37.374C59.5088 37.374 59.6197 44.2216 59.6197 49.5604V71.967H74.1837Z" fill="#C0CDDC"/>
<path d="M4.95996 25.9438H19.5565V71.965H4.95996V25.9438Z" fill="#C0CDDC"/>
<path d="M12.254 3.03369C7.58644 3.03369 3.7998 6.74141 3.7998 11.3116C3.7998 15.8819 7.58644 19.6671 12.254 19.6671C16.9215 19.6671 20.7081 15.8819 20.7081 11.3116C20.7046 6.74141 16.918 3.03369 12.254 3.03369Z" fill="#C0CDDC"/>
<path d="M71.1837 68.967V68.9644H71.2013V43.6833C71.2013 31.3159 68.4821 21.7886 53.7157 21.7886C46.6167 21.7886 41.8533 25.6031 39.9085 29.2187H39.7034V22.9432H25.7026V68.9644H40.2816V46.1761C40.2816 40.1764 41.4432 34.374 49.0314 34.374C56.5088 34.374 56.6197 41.2216 56.6197 46.5604V68.967H71.1837Z" fill="#E2ECF8"/>
<path d="M1.95996 22.9438H16.5565V68.965H1.95996V22.9438Z" fill="#E2ECF8"/>
<path d="M9.25396 0.0336914C4.58644 0.0336914 0.799805 3.74141 0.799805 8.31165C0.799805 12.8819 4.58644 16.6671 9.25396 16.6671C13.9215 16.6671 17.7081 12.8819 17.7081 8.31165C17.7046 3.74141 13.918 0.0336914 9.25396 0.0336914Z" fill="#E2ECF8"/>
</svg>
