<svg width="76" height="65" viewBox="0 0 76 65" fill="none" xmlns="http://www.w3.org/2000/svg">
<path d="M76 11.2215C73.3225 12.4462 70.4695 13.2579 67.495 13.6521C70.555 11.747 72.8905 8.75331 73.9885 5.14492C71.1355 6.91862 67.9855 8.17146 64.6285 8.87062C61.9195 5.86285 58.0585 4 53.8465 4C45.6745 4 39.0955 10.9165 39.0955 19.3955C39.0955 20.6155 39.1945 21.7885 39.4375 22.9053C27.166 22.2812 16.3075 16.1484 9.013 6.806C7.7395 9.10992 6.9925 11.747 6.9925 14.5858C6.9925 19.9163 9.625 24.6415 13.549 27.3771C11.1775 27.3302 8.851 26.6122 6.88 25.4814C6.88 25.5283 6.88 25.5893 6.88 25.6503C6.88 33.1298 11.9965 39.3425 18.706 40.7736C17.5045 41.1161 16.195 41.2804 14.836 41.2804C13.891 41.2804 12.937 41.2241 12.0415 41.0176C13.954 47.1129 19.381 51.5941 25.834 51.7395C20.812 55.8359 14.4355 58.3041 7.5325 58.3041C6.322 58.3041 5.161 58.2478 4 58.0929C10.5385 62.4896 18.2875 65 26.644 65C53.806 65 68.656 41.5385 68.656 21.202C68.656 20.5216 68.6335 19.8647 68.602 19.2125C71.5315 17.0446 73.993 14.3372 76 11.2215Z" fill="#C0CDDC"/>
<path d="M72 7.22146C69.3225 8.44615 66.4695 9.25792 63.495 9.65208C66.555 7.747 68.8905 4.75331 69.9885 1.14492C67.1355 2.91862 63.9855 4.17146 60.6285 4.87062C57.9195 1.86285 54.0585 0 49.8465 0C41.6745 0 35.0955 6.91646 35.0955 15.3955C35.0955 16.6155 35.1945 17.7885 35.4375 18.9053C23.166 18.2812 12.3075 12.1484 5.013 2.806C3.7395 5.10992 2.9925 7.747 2.9925 10.5858C2.9925 15.9163 5.625 20.6415 9.549 23.3771C7.1775 23.3302 4.851 22.6122 2.88 21.4814C2.88 21.5283 2.88 21.5893 2.88 21.6503C2.88 29.1298 7.9965 35.3425 14.706 36.7736C13.5045 37.1161 12.195 37.2804 10.836 37.2804C9.891 37.2804 8.937 37.2241 8.0415 37.0176C9.954 43.1129 15.381 47.5941 21.834 47.7395C16.812 51.8359 10.4355 54.3041 3.5325 54.3041C2.322 54.3041 1.161 54.2478 0 54.0929C6.5385 58.4896 14.2875 61 22.644 61C49.806 61 64.656 37.5385 64.656 17.202C64.656 16.5216 64.6335 15.8647 64.602 15.2125C67.5315 13.0446 69.993 10.3372 72 7.22146Z" fill="#E2ECF8"/>
</svg>
