<svg width="44" height="73" viewBox="0 0 44 73" fill="none" xmlns="http://www.w3.org/2000/svg">
<path d="M15.1561 42.9562C14.8657 42.9562 8.77385 42.9579 5.96423 42.9553C4.5178 42.9545 4.00175 42.4697 4.00175 41.1122C3.9999 37.6251 3.99898 34.138 4.00175 30.6509C4.00268 29.3106 4.54832 28.7991 5.97625 28.7983C8.78587 28.7965 14.8444 28.7974 15.1561 28.7974C15.1561 28.5585 15.1552 23.5241 15.1561 21.2057C15.1579 17.7781 15.8136 14.4971 17.6808 11.4931C19.5925 8.41825 22.3743 6.31203 25.9395 5.09418C28.2229 4.31362 30.5933 4.00226 33.0163 4.00053C36.0479 3.99881 39.0795 4.00139 42.112 4.00657C43.4151 4.00829 43.9931 4.54563 43.9958 5.76952C44.0014 9.0496 44.0014 12.3297 43.9958 15.6089C43.994 16.8457 43.44 17.3425 42.1073 17.3563C39.6223 17.3813 37.1355 17.3658 34.6532 17.459C32.146 17.459 30.8272 18.6009 30.8272 21.0211C30.7671 23.581 30.8023 26.1435 30.8023 28.7965C31.0372 28.7965 38.1722 28.7957 41.5071 28.7965C43.022 28.7965 43.5399 29.2821 43.5399 30.7027C43.5399 34.1708 43.539 37.6397 43.5362 41.1078C43.5353 42.5077 43.0488 42.9545 41.5247 42.9553C38.1898 42.957 31.0825 42.9562 30.7718 42.9562V71.0262C30.7718 72.5227 30.2668 72.9996 28.6835 72.9996C24.8233 72.9996 20.9621 73.0005 17.1019 72.9996C15.7026 72.9996 15.157 72.4925 15.157 71.1875C15.1561 62.0459 15.1561 43.277 15.1561 42.9562Z" fill="#C0CDDC"/>
<path d="M11.1561 38.9562C10.8657 38.9562 4.77385 38.9579 1.96423 38.9553C0.517803 38.9545 0.00175106 38.4697 0.00175106 37.1122C-9.85949e-05 33.6251 -0.00102342 30.138 0.00175106 26.6509C0.00267588 25.3106 0.548323 24.7991 1.97625 24.7983C4.78587 24.7965 10.8444 24.7974 11.1561 24.7974C11.1561 24.5585 11.1552 19.5241 11.1561 17.2057C11.1579 13.7781 11.8136 10.4971 13.6808 7.49306C15.5925 4.41825 18.3743 2.31203 21.9395 1.09418C24.2229 0.313619 26.5933 0.0022572 29.0163 0.000532204C32.0479 -0.0011928 35.0795 0.00139468 38.112 0.00656967C39.4151 0.00829467 39.9931 0.545631 39.9958 1.76952C40.0014 5.0496 40.0014 8.32969 39.9958 11.6089C39.994 12.8457 39.44 13.3425 38.1073 13.3563C35.6223 13.3813 33.1355 13.3658 30.6532 13.459C28.146 13.459 26.8272 14.6009 26.8272 17.0211C26.7671 19.581 26.8023 22.1435 26.8023 24.7965C27.0372 24.7965 34.1722 24.7957 37.5071 24.7965C39.022 24.7965 39.5399 25.2821 39.5399 26.7027C39.5399 30.1708 39.539 33.6397 39.5362 37.1078C39.5353 38.5077 39.0488 38.9545 37.5247 38.9553C34.1898 38.957 27.0825 38.9562 26.7718 38.9562V67.0262C26.7718 68.5227 26.2668 68.9996 24.6835 68.9996C20.8233 68.9996 16.9621 69.0005 13.1019 68.9996C11.7026 68.9996 11.157 68.4925 11.157 67.1875C11.1561 58.0459 11.1561 39.277 11.1561 38.9562Z" fill="#E2ECF8"/>
</svg>
